<svg width="601" height="526" viewBox="0 0 601 526" fill="none" xmlns="http://www.w3.org/2000/svg">
<g clip-path="url(#clip0_1204_2)">
<path d="M284.223 71.3857H308.639L322.411 72.6381L338.689 75.769L353.714 80.1524L368.739 85.7881L383.137 93.3024L393.154 99.5643L405.049 108.331L413.188 115.219L423.204 125.238L434.473 139.014L442.611 151.538L448.246 162.183L453.88 176.586L457.636 188.483L460.141 200.381L461.393 209.774L462.019 219.167V229.186L460.767 244.84L457.01 262.374L451.376 279.281L444.49 293.683L436.351 306.833L430.717 314.348L425.082 321.236L416.318 330.629L408.805 337.517L400.041 344.405L386.894 353.171L375.625 359.433L363.104 365.069L350.583 369.452L336.81 373.21L324.29 375.714L314.273 376.967L305.508 377.593H292.361L274.206 376.34L254.799 372.583L238.522 367.574L226.001 362.564L215.984 357.555L205.968 351.919L195.325 344.405L186.56 337.517L178.422 330.002L172.161 323.74L166.527 316.852L159.015 307.46L149.624 291.805L143.99 279.907L138.981 266.131L135.225 251.102L133.347 237.326L132.721 224.176L133.973 206.643L136.477 192.24L140.233 179.09L145.242 165.94L150.25 155.921L155.258 147.155L162.145 137.136L169.031 128.369L173.414 123.986L177.796 118.976L184.056 113.34L192.195 106.452L202.837 98.9381L215.358 91.4238L231.009 83.9095L248.539 77.6476L261.059 74.5167L276.71 72.0119L284.223 71.3857Z" fill="#24176B"/>
<path d="M282.345 25.0476H311.769L333.68 27.5524L349.957 30.6833L366.234 35.0667L381.885 40.7024L394.406 46.3381L404.423 51.3476L417.57 58.8619L427.586 65.75L437.603 73.2643L446.368 80.7786L456.384 90.1714L463.271 97.6857L472.035 108.331L480.8 120.855L488.312 134.005L493.321 144.024L499.581 158.426L504.59 173.455L508.346 190.988L510.224 203.512L511.476 222.298L510.85 239.205L508.972 254.86L505.842 270.514L502.085 283.038L496.451 298.067L488.939 313.721L482.678 324.993L475.792 335.012L468.279 345.031L462.645 351.293L458.262 356.302L446.994 367.574L441.985 371.957L432.595 379.471L418.196 389.49L405.049 397.005L390.024 404.519L372.495 411.407L358.096 415.79L341.819 419.548L321.785 422.679L305.508 423.931H289.857L272.954 422.679L252.295 419.548L236.018 415.79L219.115 410.155L205.342 404.519L190.943 397.631L178.422 390.117L167.153 382.602L159.641 376.967L152.754 371.331L143.364 362.564L132.721 351.919L127.086 345.031L118.322 333.76L110.809 321.862L104.549 310.59L98.2885 297.44L92.6542 282.412L88.2719 266.131L84.5156 243.588L83.8896 237.326V212.905L85.1417 199.755L87.6458 184.726L92.0281 168.445L96.4104 155.921L102.671 141.519L110.183 127.743L117.696 115.845L123.33 108.331L128.965 101.443L136.477 92.6762L145.868 83.2833L150.876 78.9L159.015 72.0119L166.527 66.3762L179.674 57.6095L190.943 51.3476L201.585 45.7119L217.863 38.8238L237.27 32.5619L253.547 28.8048L269.824 26.3L282.345 25.0476ZM284.223 71.3857L272.328 72.6381L255.425 75.769L239.148 80.7786L225.375 86.4143L212.854 92.6762L200.959 100.19L189.065 108.957L179.674 117.724L174.666 122.107L169.031 128.369L161.519 137.762L155.258 147.155L147.12 161.557L141.485 175.333L137.103 189.736L134.599 202.26L133.347 212.905L132.721 228.56L133.973 242.336L135.851 253.607L139.607 268.01L144.616 281.16L150.876 294.31L159.641 308.086L166.527 316.852L174.666 326.245L183.43 335.012L190.317 340.648L200.333 348.162L210.35 354.424L221.619 360.686L236.644 366.948L252.295 371.957L270.45 375.714L281.093 376.967L292.361 377.593H305.508L319.907 376.34L334.306 373.836L348.705 370.079L358.096 366.948L369.991 361.938L380.007 356.929L390.024 351.293L400.041 344.405L406.927 338.769L413.188 333.133L418.196 328.75L426.96 319.357L435.099 308.712L442.611 296.814L449.498 283.664L454.506 270.514L458.262 257.364L460.767 244.84L462.019 229.186V219.167L460.767 204.764L458.262 190.988L454.506 178.464L449.498 165.314L444.49 155.295L440.733 148.407L433.847 138.388L428.839 132.126L421.326 123.36L410.683 112.714L400.041 104.574L391.276 98.3119L380.633 92.05L368.739 85.7881L353.714 80.1524L338.689 75.769L322.411 72.6381L308.639 71.3857H284.223Z" fill="#FDFDFD"/>
<path d="M294.866 94.5548L297.37 95.181L306.76 102.069L319.907 110.21L334.306 117.724L349.331 123.36L364.982 127.117L379.381 128.995L393.78 129.621L392.528 132.126L387.52 138.388L381.259 150.286L377.503 161.557L375.625 172.202V190.362L378.129 209.774L382.511 239.831L383.138 247.345V267.383L381.259 279.281L377.503 289.926L371.869 300.571L366.86 306.833L358.722 315.6L349.957 322.488L340.567 328.75L330.55 334.386L320.533 339.395L303.63 346.283L297.996 348.162H292.988L274.832 341.274L264.816 336.89L252.295 330.002L241.652 322.488L232.888 314.974L226.001 307.46L220.367 299.319L215.984 290.552L212.228 279.281L210.35 268.636L209.724 255.486L210.35 240.457L215.358 196.624L215.984 187.857V173.455L214.732 162.183L212.228 152.79L208.472 143.398L203.464 134.631L201.585 132.752V130.874L220.993 128.995L234.766 126.49L250.417 122.107L263.564 116.471L274.832 110.21L285.475 102.695L292.361 97.0595L294.866 94.5548Z" fill="#FDFDFD"/>
<path d="M110.183 410.781L113.94 411.407L123.33 417.043L144.616 427.688L164.023 435.829L187.812 443.969L209.098 449.605L232.887 454.614L257.303 457.745L269.198 458.998L282.345 459.624H315.525L336.184 458.371L361.226 455.24L382.511 451.483L400.667 447.1L420.7 441.464L441.985 433.95L464.523 423.931L479.548 416.417L486.434 412.66L488.939 413.912L495.825 423.305L504.59 435.202L510.224 442.717L511.476 445.221L505.842 448.979L492.069 457.119L477.67 464.633L457.01 473.4L439.481 479.662L418.196 485.924L393.154 491.56L373.747 494.69L353.087 497.195L327.42 499.074H284.223L252.921 496.569L229.131 493.438L201.585 488.429L184.682 484.671L161.519 478.41L145.242 473.4L120.826 464.633L99.5406 455.867L88.2719 450.857L83.8896 447.726L88.2719 440.838L97.0365 428.94L105.175 417.669L110.183 410.781Z" fill="#241768"/>
<path d="M282.345 25.0476H311.769L333.68 27.5524L349.957 30.6833L366.234 35.0667L381.885 40.7024L394.406 46.3381L404.423 51.3476L417.57 58.8619L427.586 65.75L437.603 73.2643L446.368 80.7786L456.384 90.1714L463.271 97.6857L472.035 108.331L480.8 120.855L488.312 134.005L493.321 144.024L499.581 158.426L504.59 173.455L508.346 190.988L510.224 203.512L511.476 222.298L510.85 239.205L508.972 254.86L505.842 270.514L502.085 283.038L496.451 298.067L488.939 313.721L482.678 324.993L475.792 335.012L468.279 345.031L462.645 351.293L458.262 356.302L446.994 367.574L441.985 371.957L432.595 379.471L418.196 389.49L405.049 397.005L390.024 404.519L372.495 411.407L358.096 415.79L341.819 419.548L321.785 422.679L305.508 423.931H289.857L272.954 422.679L252.295 419.548L236.018 415.79L219.115 410.155L205.342 404.519L190.943 397.631L178.422 390.117L167.153 382.602L159.641 376.967L152.754 371.331L143.364 362.564L132.721 351.919L127.086 345.031L118.322 333.76L110.809 321.862L104.549 310.59L98.2885 297.44L92.6542 282.412L88.2719 266.131L84.5156 243.588L83.8896 237.326V212.905L85.1417 199.755L87.6458 184.726L92.0281 168.445L96.4104 155.921L102.671 141.519L110.183 127.743L117.696 115.845L123.33 108.331L128.965 101.443L136.477 92.6762L145.868 83.2833L150.876 78.9L159.015 72.0119L166.527 66.3762L179.674 57.6095L190.943 51.3476L201.585 45.7119L217.863 38.8238L237.27 32.5619L253.547 28.8048L269.824 26.3L282.345 25.0476ZM285.475 30.6833L265.442 32.5619L246.034 36.319L229.757 40.7024L214.732 46.3381L202.211 51.9738L186.56 60.1143L174.666 67.6286L167.153 73.2643L158.389 80.1524L145.868 91.4238L143.364 93.9286V95.181H142.111L137.729 100.19L130.217 108.957L122.704 118.976L115.192 130.874L108.931 142.145L103.297 154.043L97.6625 169.071L92.6542 189.11L90.15 206.017L89.524 213.531V236.7L91.4021 252.981L94.5323 268.01L98.2885 281.16L102.671 293.057L109.557 308.086L117.07 321.236L122.078 328.75L127.713 336.264L135.851 346.283L155.258 365.695L162.145 371.331L170.909 378.219L182.178 385.733L191.569 391.369L201.585 396.379L212.228 401.388L227.879 407.024L240.4 410.781L253.547 413.912L268.572 416.417L282.971 417.669H312.395L333.68 415.164L351.835 411.407L366.86 407.024L382.511 401.388L397.536 394.5L410.057 387.612L423.204 378.845L433.221 371.331L441.359 364.443L458.889 346.91L464.523 340.021L471.409 330.629L477.67 321.236L485.182 308.086L491.443 294.936L495.825 283.664L500.833 266.757L503.964 249.85L505.216 239.205V210.4L503.337 194.119L500.207 179.717L495.199 163.436L490.191 150.912L482.678 135.257L473.914 121.481L467.653 112.714L462.645 106.452L455.132 97.6857L441.985 84.5357L435.099 78.9L425.708 71.3857L412.561 62.619L398.163 54.4786L385.016 48.2167L370.617 42.581L356.218 38.1976L339.941 34.4405L323.664 31.9357L309.265 30.6833H285.475Z" fill="#0C0455"/>
<path d="M537.144 355.05H539.022L538.396 382.602L574.706 378.219H579.089L577.836 381.35L569.072 391.995L561.559 400.136L552.169 409.529L545.282 415.164L537.144 422.052L530.257 427.062L521.493 433.324L512.728 438.96L509.598 435.829L504.59 429.567L495.825 417.669L489.565 408.902L486.434 408.276L476.418 413.912L462.645 420.8L460.141 420.174L458.889 417.669L468.279 411.407L477.044 405.771L487.686 398.257L497.703 390.743L506.468 383.855L512.728 378.219L517.736 373.836L525.875 366.321L535.892 356.929L537.144 355.05Z" fill="#24176A"/>
<path d="M282.345 25.0476H311.769L333.68 27.5524L349.957 30.6833L366.234 35.0667L381.885 40.7024L394.406 46.3381L404.423 51.3476L417.57 58.8619L427.586 65.75L437.603 73.2643L446.368 80.7786L456.384 90.1714L463.271 97.6857L472.035 108.331L480.8 120.855L488.312 134.005L493.321 144.024L499.581 158.426L504.59 173.455L508.346 190.988L510.224 203.512L511.476 222.298L510.85 239.205L508.972 254.86L505.842 270.514L502.085 283.038L496.451 298.067L488.939 313.721L482.678 324.993L475.792 335.012L472.661 336.89L470.783 338.769L469.531 337.517L472.661 334.386L475.166 333.133L473.914 332.507L476.418 330.002L478.296 326.245H480.174L480.8 324.993H478.296L475.792 330.002L473.288 331.255L475.792 326.871L478.296 323.114L481.426 318.105L483.93 313.721V312.469L482.678 313.721L483.304 310.59L490.817 294.936L495.199 283.664L500.207 266.757L503.337 249.85L504.59 239.205V210.4L502.711 194.119L499.581 179.717L494.573 163.436L489.565 150.912L482.052 135.257L473.288 121.481L467.027 112.714L462.019 106.452L454.506 97.6857L441.985 85.1619L435.099 79.5262L425.708 72.0119L412.561 63.2452L398.163 55.1048L385.016 48.8429L370.617 43.2071L356.218 38.8238L339.941 35.0667L323.664 32.5619L309.265 31.3095H285.475L265.442 33.1881L246.034 36.9452L229.757 41.3286L214.732 46.9643L202.211 52.6L186.56 60.7405L174.666 68.2548L167.153 73.8905L158.389 80.7786L145.868 92.05L143.99 93.3024L143.364 92.6762L142.737 93.9286L140.859 93.3024V91.4238L142.111 88.919L143.364 88.2929L143.99 86.4143H145.868L146.494 83.9095H148.372L149.624 81.4048L152.128 79.5262L154.006 78.9L152.754 77.6476L159.015 72.0119L166.527 66.3762L179.674 57.6095L190.943 51.3476L201.585 45.7119L217.862 38.8238L237.27 32.5619L253.547 28.8048L269.824 26.3L282.345 25.0476Z" fill="#0B0354"/>
<path d="M61.9781 354.424L66.3604 358.181L73.2469 365.069L78.2552 369.452L83.2635 374.462L88.2719 378.845L96.4104 385.733L106.427 393.248L114.566 399.51L124.582 406.398L135.225 413.286L141.485 417.043L140.859 421.426L137.103 420.174L121.452 412.033L112.061 406.398L109.557 405.771L101.419 417.043L93.9062 427.688L87.6458 436.455L87.0198 437.707L83.8896 436.455L71.3687 427.688L63.2302 421.426L56.9698 416.417L48.2052 408.902L32.5541 393.248L26.9198 386.36L21.9114 379.471V377.593L51.9614 381.35L63.2302 382.602L62.6041 376.967L61.9781 354.424Z" fill="#24176A"/>
<path d="M200.333 448.352L205.968 448.979L232.887 454.614L257.303 457.745L269.198 458.998L282.345 459.624L285.475 460.876H309.891L310.517 462.129L309.891 463.381L308.639 462.755L308.012 463.381L306.134 464.007L303.63 463.381V462.129H299.248L297.996 462.755L294.24 461.502V462.755L296.744 464.007H294.866L291.735 465.26V466.512L286.727 467.138L285.475 466.512V465.26H282.345L280.467 464.007L279.841 462.129L278.589 461.502L262.937 460.876L261.685 462.755L256.677 463.381L252.921 462.129L249.791 461.502L246.66 459.624L245.408 460.876V459.624H244.156V460.876H242.904L242.278 458.998L239.148 459.624L235.392 458.371H232.261V460.25L238.522 460.876L239.774 461.502H242.904L244.156 465.886L244.782 467.764H246.034L246.66 471.521H247.912V483.419L246.66 485.924H245.408L243.53 480.288L239.148 464.007L236.018 463.381H234.766L233.514 465.886L227.253 477.157H225.375L224.123 476.531V468.39L222.871 464.007L222.245 462.129L219.741 460.876L215.984 459.624H210.35L205.968 462.129L203.464 468.39L202.211 475.279L198.455 474.652L199.081 467.764L200.959 459.624H202.211L202.837 457.119V458.998H204.716V457.119L206.594 456.493L205.968 455.24L206.594 453.988H207.846V451.483H202.837L202.211 453.362L199.707 452.11L197.829 450.231L200.333 448.352Z" fill="#0D0556"/>
<path d="M254.173 465.886H262.311L266.068 467.764L268.572 470.895L269.198 472.774V480.914L265.442 486.55L263.564 487.802L260.433 488.429H255.425L251.043 486.55L247.912 481.54L247.286 475.905L249.165 470.269L251.669 467.138L254.173 465.886Z" fill="#FDFDFD"/>
<path d="M210.35 458.998H215.984L220.367 460.876L223.497 464.007L224.749 470.269L223.497 475.905L219.115 480.914L215.984 482.167H211.602L206.594 480.288L203.464 476.531L202.838 475.279V468.39L205.342 462.129L208.472 459.624L210.35 458.998Z" fill="#FDFDFD"/>
<path d="M164.023 447.1L170.909 448.352L174.666 450.857L177.17 455.24V460.25L175.292 465.26L172.161 469.017L169.657 470.269H162.771L157.762 467.764L155.258 464.007V456.493L157.762 450.857L160.893 448.352L164.023 447.1Z" fill="#FDFDFD"/>
<path d="M352.461 51.9738H360.6L364.982 54.4786L367.486 58.8619V64.4976L365.608 69.5071L363.104 72.6381L359.348 74.5167H354.34L349.331 72.0119L346.827 68.8809L345.575 65.75L346.201 60.1143L348.705 54.4786L352.461 51.9738Z" fill="#0C053A"/>
<path d="M473.914 177.838H478.296L482.678 179.717L485.808 183.474L486.434 185.979V191.614L483.93 195.998L480.174 198.502L473.287 199.755L467.653 197.876L465.149 194.745L463.897 190.362V185.979L465.775 182.221L468.905 179.717L473.914 177.838Z" fill="#100952"/>
<path d="M449.498 301.198H455.758L459.515 303.076L463.897 308.086L464.523 309.338V315.6L462.019 319.357L458.889 322.488L457.01 323.114H450.75L445.116 319.357L441.985 314.348V309.338L445.116 303.702L449.498 301.198Z" fill="#100855"/>
<path d="M450.75 120.855L456.384 122.107L460.141 125.238L462.019 129.621V134.005L460.141 137.762L455.132 142.145L451.376 143.398H446.994L443.864 141.519L440.733 137.762L438.855 131.5L440.733 127.117L443.238 123.986L448.246 121.481L450.75 120.855Z" fill="#0D0553"/>
<path d="M256.051 46.3381H263.564L266.694 49.469L268.572 52.6L269.198 55.1048V61.9929L267.32 65.1238L264.19 67.6286L260.433 68.881H255.425L251.669 66.3762L249.165 62.619L247.912 58.2357L248.539 52.6L250.417 49.469L252.295 47.5905L256.051 46.3381Z" fill="#0D0555"/>
<path d="M120.826 263H128.339L132.095 265.505L134.599 269.888L135.225 274.271L133.973 278.655L129.591 282.412L124.582 284.29H119.574L115.818 281.786L113.314 278.655L112.061 275.524V270.514L114.566 266.131L120.826 263Z" fill="#0E0656"/>
<path d="M282.345 468.39H291.109L295.492 470.269L298.622 475.279V483.419L296.118 488.429L292.988 490.307H281.093L279.841 489.055V472.774L280.467 469.017L282.345 468.39Z" fill="#FDFDFD"/>
<path d="M150.25 108.957H155.884L159.641 111.462L162.771 114.593L165.275 119.602L163.397 125.238L159.641 130.248L157.136 132.752L154.632 131.5L146.494 125.238L142.111 121.481L140.859 118.35L143.364 114.593L148.372 109.583L150.25 108.957Z" fill="#0F0656"/>
<path d="M258.555 174.707H264.816L268.572 175.96L271.702 179.717L272.954 182.848V189.736L271.076 193.493L267.946 195.998L266.068 196.624L258.555 197.25L254.799 195.998L254.173 189.11V180.969L254.799 175.333L258.555 174.707Z" fill="#0D0551"/>
<path d="M202.211 457.119L202.837 458.998H207.22L207.846 457.745L209.724 458.371L214.106 457.745L216.61 458.371L220.367 457.119L223.497 458.371V459.624L226.001 460.25V458.371L229.131 457.745L232.261 458.998V460.25L238.522 460.876L239.774 461.502H242.904L244.156 465.886L244.782 467.764H246.034L246.66 471.521H247.912V483.419L246.66 485.924H245.408L243.53 480.288L239.148 464.007L236.018 463.381H234.766L233.514 465.886L227.253 477.157H225.375L224.123 476.531V468.39L222.871 464.007L222.245 462.129L219.741 460.876L215.984 459.624H210.35L205.968 462.129L203.464 468.39L202.211 475.279L198.455 474.652L199.081 467.764L200.959 459.624H202.211V457.119Z" fill="#241867"/>
<path d="M448.872 442.717H452.002L453.254 443.969L458.262 458.371L458.889 459.624V463.381L455.758 464.007L453.88 460.876L451.376 453.362V465.886L450.124 467.138H446.994L439.481 455.867L441.359 462.129L443.237 466.512V469.643L440.107 470.269L438.229 467.764L432.595 450.857L433.221 448.979L436.351 447.726L439.481 448.352L445.742 457.119L446.368 456.493L445.742 444.595L448.872 442.717Z" fill="#FDFDFD"/>
<path d="M344.949 466.512H350.583L351.835 469.643L352.461 480.914V487.802L351.835 488.429H348.079L347.453 474.652H346.201L344.949 487.802L343.071 489.055H339.941L338.062 485.298L335.558 477.157V489.055L331.802 489.681L330.55 486.55L329.924 476.531V468.39L333.054 467.138H336.184L338.689 472.774L340.567 477.783V479.662H341.819L343.697 467.764L344.949 466.512Z" fill="#FDFDFD"/>
<path d="M124.582 219.793L127.712 220.419L126.46 222.924L121.452 225.429L122.078 234.821L126.46 235.448L129.591 251.102V256.112L111.435 259.869L108.305 259.243L107.679 256.738L113.314 254.86L125.834 252.355L124.582 245.467V241.083L125.208 239.831L108.931 234.195L105.175 231.69L104.549 228.56L115.192 222.924L124.582 219.793Z" fill="#0E0656"/>
<path d="M470.157 150.286H473.287L475.166 153.417L474.54 155.921L470.157 159.679L463.897 164.062L472.661 163.436L478.922 162.81L480.8 166.567L479.548 169.071L473.287 172.202L462.645 176.586H460.767L460.141 172.829L475.166 167.193L464.523 168.445H457.636L456.384 165.314L462.645 160.305L470.157 155.295L464.523 157.174L457.01 160.305H453.88L452.628 157.8L457.636 155.295L470.157 150.286Z" fill="#0E074D"/>
<path d="M349.957 174.707H357.47L361.226 175.96L363.104 178.464V182.848L359.974 185.979H358.722L360.6 189.736L363.73 194.745V196.624L361.226 197.25L358.722 194.745L354.966 189.11L351.209 187.857H349.957V194.119L349.331 197.25H346.201L345.575 195.998V175.96L349.957 174.707Z" fill="#0D0550"/>
<path d="M341.193 246.093H351.209L355.592 247.345L357.47 250.476L356.844 254.86L353.087 257.99L354.34 260.495L358.096 266.757V268.01H354.34L349.957 261.748L348.079 259.243L343.697 258.617V268.01H339.941L339.315 259.869V249.224L339.941 246.719L341.193 246.093Z" fill="#100854"/>
<path d="M335.558 381.976H341.193L343.697 383.229L344.949 385.107V390.117L342.445 393.248L343.071 395.126L347.453 398.883L348.079 402.64L344.323 402.014L342.445 400.136V398.883L339.941 397.631V396.379L333.68 395.752L334.932 405.145L331.802 405.771L330.55 404.519L327.42 389.49V384.481L329.298 383.229L335.558 381.976Z" fill="#0D0553"/>
<path d="M458.262 278.655L464.523 280.533L476.418 284.917L478.296 286.169L477.67 289.926L473.287 298.693L471.409 300.571H466.401L463.271 297.44L462.645 293.057L454.506 295.562L452.002 294.936L452.628 291.805L455.758 290.552L462.645 289.3L465.149 286.795L464.523 284.917L457.636 282.412V279.281L458.262 278.655Z" fill="#0E0656"/>
<path d="M144.616 435.202L148.998 436.455V437.707H152.128L153.38 440.212H148.998L150.25 443.343L150.876 453.988V465.26H147.746L146.494 464.007L145.868 458.998L138.355 457.119L134.599 460.25L130.843 458.998L132.095 455.867L138.981 448.352L143.364 442.717L147.12 440.212H148.372L147.746 438.333H143.99V435.829L144.616 435.202Z" fill="#FDFDFD"/>
<path d="M465.775 435.202H471.409L474.54 437.081L475.166 439.586L474.54 440.212H464.523L462.645 442.717L462.019 445.848L463.897 451.483L467.653 453.988L471.409 453.362L475.166 451.483V448.352H468.905L468.279 445.848L472.661 443.969L477.044 442.717L479.548 445.848L480.174 451.483L477.044 455.24L472.661 457.745L470.157 458.371H465.149L460.767 455.867L457.636 450.231L457.01 447.726V443.343L460.141 438.333L465.775 435.202Z" fill="#FDFDFD"/>
<path d="M236.018 462.755L239.148 463.381L241.026 467.764L244.782 483.419V486.55H241.026L238.522 481.54L233.514 480.288L230.383 480.914L228.505 484.045L226.001 484.671L224.123 483.419L224.749 480.914L232.888 465.886L236.018 462.755Z" fill="#FDFDFD"/>
<path d="M361.852 464.633H365.608L370.617 473.4L375.625 483.419L374.999 485.924H371.243L369.991 482.167H362.478L360.6 482.793L359.974 487.176L356.218 487.802L355.592 487.176L356.218 479.662L360.6 465.26L361.852 464.633Z" fill="#FDFDFD"/>
<path d="M308.639 467.764L311.769 468.39L314.899 473.4L319.907 485.924V490.307H316.777L315.525 489.055L314.273 485.924H305.508L304.256 489.681L299.874 490.307L300.5 485.924L304.882 474.026L308.013 468.39L308.639 467.764Z" fill="#FDFDFD"/>
<path d="M396.91 458.371L400.041 459.624L404.423 465.26L411.935 476.531V478.41L408.805 479.036L406.927 478.41L406.301 475.905H400.041L396.91 476.531L395.032 482.167L391.902 482.793L391.276 480.914L394.406 460.876L396.91 458.371Z" fill="#FDFDFD"/>
<path d="M383.764 63.2452L388.772 63.8714L394.406 67.0024L396.91 70.7595V74.5167L394.406 78.2738L393.154 78.9H387.52L383.764 77.0214L381.259 76.3952L378.129 82.6571L374.999 82.031L375.625 78.2738L383.764 63.2452Z" fill="#0C053A"/>
<path d="M288.605 42.581H291.735L292.987 45.0857L293.614 55.731V64.4976H289.857L282.345 55.1048L279.215 50.7214L279.841 65.1238L276.71 65.75L275.458 63.8714L274.206 45.0857L274.832 43.8333H277.962L283.597 50.0952L287.979 55.731L289.231 57.6095L288.605 42.581Z" fill="#0C0638"/>
<path d="M122.704 433.324H127.086L132.095 435.829L134.599 438.333V442.717L133.973 443.343H130.843L128.339 438.333L123.956 437.707L123.33 440.838L125.834 442.09L130.843 446.474L132.095 448.352V452.11L128.965 455.867L127.712 456.493H122.078L117.07 453.988L115.192 451.483L114.566 446.474L115.192 445.221L118.322 445.848L120.826 451.483L122.704 452.736L125.834 452.11L126.46 448.979L118.948 442.09L118.322 437.707L121.452 433.95L122.704 433.324Z" fill="#FDFDFD"/>
<path d="M485.182 204.764L489.565 205.39L488.939 208.521L485.808 211.652L475.792 219.167H489.565L490.817 219.793V222.298L489.565 222.924L482.678 223.55H468.279L467.653 221.045L473.288 216.036L480.8 210.4L482.052 209.148L467.027 209.774V206.643L467.653 206.017L472.035 205.39L485.182 204.764Z" fill="#0F0754"/>
<path d="M329.924 174.707H333.68L335.558 177.838L339.941 189.11L341.819 194.119V197.25H338.689L336.184 192.24H327.42L326.168 194.119L325.542 197.25H322.411L323.038 191.614L328.672 176.586L329.924 174.707Z" fill="#0D0639"/>
<path d="M408.179 75.1429L410.683 76.3952V82.031L406.301 99.5643L403.797 100.19L403.171 99.5643V92.6762L397.536 88.2929L394.406 88.9191L392.528 90.1714L389.398 89.5452V87.0405L406.301 75.7691L408.179 75.1429Z" fill="#0F0755"/>
<path d="M182.178 78.2738L185.934 78.9L195.951 84.5357L202.211 89.5452V92.05H199.081L196.577 90.1714L194.073 90.7976L190.943 93.3024L189.065 94.5548V101.443L186.56 102.069L184.682 97.6857L180.3 82.6571L180.926 79.5262L182.178 78.2738Z" fill="#0E0651"/>
<path d="M353.714 377.593L357.47 378.219L364.356 386.986L369.991 394.5L369.365 397.005L366.234 396.379L363.73 393.248L358.096 394.5H354.966L354.34 400.762L353.714 401.388H350.583V393.874L351.835 380.724L352.461 378.219L353.714 377.593Z" fill="#171142"/>
<path d="M324.916 245.467L327.42 246.093L329.298 248.598L335.558 264.252L336.184 268.01L333.68 268.636L331.802 266.757L330.55 263.626L320.533 263L319.281 267.383L318.655 268.01H315.525L317.403 261.748L322.411 248.598L324.916 245.467Z" fill="#0F083B"/>
<path d="M132.095 132.126L142.738 133.379L154.006 135.257V137.762L152.754 139.014H146.494L142.738 146.529L145.242 150.286V152.79L141.485 152.164L135.851 144.65L129.591 135.883L130.217 133.379L132.095 132.126Z" fill="#0F0656"/>
<path d="M267.946 245.467L270.45 246.093L275.458 256.112L278.589 264.879V268.01L276.084 268.636L274.832 267.383L274.206 263L263.564 263.626L262.938 268.01H259.181L259.807 263L264.816 250.476L267.946 245.467Z" fill="#0D0738"/>
<path d="M314.273 385.107H318.655L322.411 386.986L324.29 390.117V392.621L321.785 391.995L318.655 389.49L314.899 388.864L311.143 390.743L309.891 392.621V400.136L312.395 403.893L313.647 404.519H318.655L322.411 402.014V399.51L316.777 398.883L316.151 397.005L317.403 395.752H324.29L325.542 397.005L326.168 403.893L321.159 407.65L318.655 408.276H313.021L309.265 406.398L306.134 402.64L304.882 398.883V394.5L306.76 389.49L310.517 386.36L314.273 385.107Z" fill="#0D053F"/>
<path d="M331.176 45.0857L337.436 46.3381L340.567 48.8429L341.819 52.6L341.193 55.1048L338.689 53.8524L336.81 50.7214L334.306 49.469H329.298L326.794 51.9738L325.542 55.731L326.168 61.9929L328.046 63.8714L333.68 64.4976L336.81 63.2452L337.436 60.1143H332.428L331.802 57.6095L332.428 56.9833H336.81L340.567 58.2357V64.4976L339.941 66.3762L334.932 68.2548H330.55L326.168 67.0024L323.037 64.4976L321.159 60.7405V53.2262L323.037 49.469L327.42 45.7119L331.176 45.0857Z" fill="#100853"/>
<path d="M243.53 457.119H251.669L269.198 458.998L282.345 459.624L285.475 460.876H309.891L310.517 462.129L309.891 463.381L308.639 462.755L308.013 463.381L306.134 464.007L303.63 463.381V462.129H299.248L297.996 462.755L294.24 461.502V462.755L296.744 464.007H294.866L291.735 465.26V466.512L286.727 467.138L285.475 466.512V465.26H282.345L280.467 464.007L279.841 462.129L278.589 461.502L262.938 460.876L261.685 462.755L256.677 463.381L252.921 462.129L249.791 461.502L246.66 459.624L245.408 460.876V459.624H244.156V460.876H242.904L242.278 457.745L243.53 457.119Z" fill="#0D0556"/>
<path d="M303.63 42.581L316.151 43.8333L317.403 44.4595V46.9643L314.899 47.5905L305.508 46.3381L304.882 51.9738H310.517L315.525 52.6L316.151 55.1048L315.525 55.731H309.265L304.256 55.1048V60.7405L304.882 61.3667L313.647 61.9929L316.151 62.619V65.75L303.004 65.1238L300.5 63.8714L299.874 62.619V53.8524L301.126 44.4595L301.752 43.2071L303.63 42.581Z" fill="#0D0555"/>
<path d="M92.6542 383.229L95.1583 384.481L104.549 391.995L116.444 400.762L126.46 407.65L140.233 416.417L141.485 417.043L140.859 421.426L137.103 420.174L121.452 412.033L115.818 408.276L115.192 405.771L116.444 405.145L114.566 402.64L113.94 400.136H112.061L111.435 398.883H109.557V397.631L107.679 397.005L105.175 394.5V393.248L102.045 391.995L98.9146 391.369L97.6625 388.864L94.5323 385.733L92.6542 384.481V383.229Z" fill="#0C0455"/>
<path d="M421.952 86.4143L425.082 87.6667L423.83 90.1714L418.196 96.4333L415.066 100.19L415.692 104.574L418.822 107.079L421.326 106.452L428.839 99.5643L431.969 95.181L435.099 96.4333L434.473 99.5643L427.586 107.079L423.204 110.836L419.448 111.462L415.692 109.583L410.683 104.574V99.5643L413.814 94.5548L420.7 87.0405L421.952 86.4143Z" fill="#0E0657"/>
<path d="M291.735 210.4H306.134L306.76 212.905L306.134 213.531L294.866 214.157V219.793H305.508V222.924L294.866 223.55V229.186H306.134L307.386 229.812V232.317L296.118 232.943L291.735 232.317L290.483 230.438V212.905L291.735 210.4Z" fill="#130B55"/>
<path d="M117.07 167.819H120.2L120.826 170.324L115.818 173.455L115.192 177.838L115.818 179.09L118.948 178.464L123.33 172.202L126.46 169.698L130.843 170.324L133.973 173.455L134.599 177.838L132.721 183.474L128.965 186.605L125.834 187.231L124.582 185.979V183.474L129.591 181.595L130.843 179.09V175.96L128.339 174.081L126.46 174.707L121.452 182.221L119.574 183.474H115.192L112.061 180.969L111.435 175.96L113.314 170.324L117.07 167.819Z" fill="#0F0754"/>
<path d="M169.031 88.2929L172.161 88.919L176.544 93.3024L181.552 99.5643L182.804 102.069L182.178 105.826L179.048 110.21L174.666 112.714H169.657L163.397 107.079L157.763 100.19V97.6857H161.519L167.153 104.574L169.031 105.826V107.079L170.909 107.705V108.957L175.292 108.331L177.796 105.826L177.17 101.443L170.283 93.3024L168.405 91.4238L169.031 88.2929Z" fill="#100756"/>
<path d="M378.129 367.574L381.259 368.2L384.39 374.462L386.894 381.976V386.36L385.642 388.864L380.007 391.995L374.373 392.621L369.991 388.864L366.86 381.976L364.982 376.34V373.21L368.113 373.836L372.495 383.229L374.373 386.986V388.238L378.129 388.864L382.511 386.36L381.885 381.35L377.503 370.079L378.129 367.574Z" fill="#0E073C"/>
<path d="M107.679 189.736L110.809 190.362V201.633H114.566L117.07 191.614H119.574L118.948 201.633L121.452 202.886L125.208 203.512L125.834 192.867L126.46 191.614L129.591 192.24L128.339 204.764L127.712 207.269H120.2L109.557 206.017L106.427 204.764V198.502L107.679 189.736Z" fill="#0E0651"/>
<path d="M240.4 174.707H249.165L250.417 175.333V177.838L238.522 178.464L237.896 184.1H248.539L249.165 187.231H237.896L238.522 193.493H249.791L250.417 196.624L249.791 197.25H240.4L234.766 196.624L234.14 195.998V175.333L240.4 174.707Z" fill="#0D0459"/>
<path d="M160.267 321.236L163.397 322.488L169.031 328.75L171.535 331.881L170.283 335.012L163.397 341.9L157.762 346.283L154.632 345.657L147.746 338.769L145.868 336.264V334.386L148.998 335.012L155.884 341.9L158.389 340.648L159.015 337.517L154.006 331.881L153.38 328.75L155.884 329.376L161.519 335.638L164.649 334.386L165.901 333.133L165.275 330.002L162.145 326.871V325.619L160.267 324.993L159.641 321.862L160.267 321.236Z" fill="#0D0556"/>
<path d="M245.408 245.467H249.791L254.173 247.971L255.425 250.476L254.799 253.607L252.295 252.355L249.791 249.224L246.66 248.598L243.53 250.476L244.156 252.981L246.66 254.233L252.295 255.486L255.425 257.99L256.051 262.374L254.799 265.505L251.669 268.01L246.034 268.636L241.652 266.757L239.148 263L239.774 259.869L242.278 260.495L244.782 264.252L249.165 264.879L251.669 263L251.043 259.869L242.278 256.738L240.4 255.486L239.774 249.85L242.904 246.719L245.408 245.467Z" fill="#0D0555"/>
<path d="M292.361 174.707L294.866 175.333L295.492 175.96V191.614L292.987 195.371L289.231 197.25H283.597L279.215 194.745L277.336 190.988V175.333H281.093L281.719 189.11L282.971 193.493H288.605L290.483 191.614L291.735 175.333L292.361 174.707Z" fill="#0E0655"/>
<path d="M467.027 249.224L475.792 250.476L486.434 252.981L487.06 253.607L486.434 261.748L485.182 267.383L482.678 268.636L481.426 268.01L482.678 260.495V256.738L478.296 255.486L475.792 265.505L473.288 266.131L472.661 264.252L475.166 255.486L473.288 254.233L468.905 253.607L466.401 264.879L463.271 265.505L463.897 259.869L465.775 250.476L467.027 249.224Z" fill="#0D0551"/>
<path d="M246.034 380.098H251.043L261.059 382.602L261.685 384.481L261.059 385.733L255.425 384.481L249.165 383.229L248.539 389.49L254.799 390.117L258.555 391.369V393.874L252.295 393.248L247.286 392.621L246.66 397.631L251.669 399.51L257.929 400.762L257.303 403.893L249.791 402.64L242.278 400.762L241.652 397.631L245.408 381.976L246.034 380.098Z" fill="#0E0655"/>
<path d="M146.494 306.207L150.876 306.833L154.006 309.338L156.51 314.974L155.884 319.983L152.754 321.862L152.128 321.236V313.095L150.876 311.217L145.868 310.59L146.494 316.226L147.746 320.61V324.367L145.242 327.498L140.859 328.124L135.851 323.74L134.599 321.236V315.6L135.851 314.348L138.355 314.974V321.236L141.485 324.367L143.364 323.74L142.737 318.105L141.485 313.095L142.111 309.338L143.99 307.46L146.494 306.207Z" fill="#0F0755"/>
<path d="M132.721 286.169H137.729L141.485 288.674L143.99 293.683V299.319L141.485 303.076L137.729 305.581L133.973 306.833H128.965L125.208 304.955L122.704 301.824L121.452 296.814L122.704 291.805L124.582 290.552H127.713L126.46 293.683L125.834 294.936V299.945L126.46 301.824L128.965 302.45H133.347L138.355 299.945L139.607 298.693V293.057L138.981 290.552L133.347 289.926L132.095 289.3L132.721 286.169Z" fill="#0F0755"/>
<path d="M234.14 52.6L239.774 53.8524L242.278 56.9833L241.652 58.8619L238.522 58.2357L236.018 56.9833H232.261L229.757 59.4881L229.131 63.8714L231.635 70.1333L233.514 71.3857H238.522L241.652 68.2548L242.278 63.8714H244.156L245.408 64.4976V69.5071L242.278 73.2643L238.522 75.1429H231.635L226.627 70.7595L224.749 65.75V60.7405L227.253 55.731L229.757 53.8524L234.14 52.6Z" fill="#0E0653"/>
<path d="M354.966 55.1048H359.348L362.478 57.6095L363.73 61.3667L363.104 65.75L360.6 69.5071L357.47 71.3857H353.714L350.583 68.2548L349.957 67.0024V61.3667L351.835 57.6095L354.966 55.1048Z" fill="#FDFDFD"/>
<path d="M122.704 266.757H127.712L130.843 269.888L131.469 271.14V275.524L127.086 279.281L123.33 280.533L118.322 279.907L115.818 276.776L115.192 271.767L118.322 268.636L122.704 266.757Z" fill="#FDFDFD"/>
<path d="M307.386 174.707H313.647L316.777 176.586L318.655 179.717V183.474L316.151 182.848L313.647 179.09L308.639 178.464L305.508 180.343L304.256 183.474V187.857L306.134 192.24L308.013 193.493H312.395L315.525 190.362L317.403 187.857H318.655V192.24L315.525 195.998L312.395 197.25H307.386L303.63 195.371L301.126 192.24L299.874 188.483V183.474L301.752 179.09L304.882 175.96L307.386 174.707Z" fill="#0E073A"/>
<path d="M473.914 182.221H479.548L482.678 185.352V191.614L479.548 194.745L477.67 195.371H470.783L467.653 192.24L467.027 187.857L468.905 184.1L473.914 182.221Z" fill="#FDFDFD"/>
<path d="M256.051 50.0952H261.059L264.19 53.2262L265.442 56.3571V60.7405L263.564 63.8714L260.433 65.75L255.425 65.1238L252.921 61.3667L252.295 59.4881V53.2262L254.173 50.7214L256.051 50.0952Z" fill="#FDFDFD"/>
<path d="M449.498 125.238H454.506L457.636 127.743L458.262 132.752L456.384 135.883L452.628 139.014L451.376 139.64H446.994L443.864 137.136L443.237 135.883V130.874L446.368 127.117L449.498 125.238Z" fill="#FDFDFD"/>
<path d="M448.872 305.581H455.132L458.889 308.086L460.767 310.59V316.226L457.01 319.357L454.506 319.983L449.498 318.105L445.742 313.721V308.712L448.872 305.581Z" fill="#FDFDFD"/>
<path d="M381.885 93.3024L385.016 94.5548L395.032 100.817L408.179 110.836L415.692 117.724L423.204 125.238L434.473 139.014L442.611 151.538L448.246 162.183L448.872 165.94L447.62 165.314L444.49 158.426L443.237 157.8V155.921L441.985 154.669L440.733 151.538L438.229 148.407L436.351 144.65L434.473 142.145L433.221 141.519L433.847 139.64H432.595L430.717 137.136V135.883L428.212 134.631L425.082 131.5L424.456 130.248L422.578 129.621V128.369L419.448 127.117L416.318 123.986L411.935 118.976L408.805 115.219V112.714L406.301 111.462L399.415 105.826L398.162 107.079L396.91 104.574L390.024 100.19L388.146 98.9381V97.6857H386.268L384.39 95.8071L381.885 94.5548V93.3024Z" fill="#090152"/>
<path d="M483.93 311.217L484.556 313.721L479.548 322.488L477.044 325.619L475.166 329.376V330.002L478.296 324.367L480.8 324.993L480.174 326.871H478.296L476.418 330.629L474.54 332.507V334.386H473.287L470.157 337.517L471.409 338.143L473.913 335.012L475.166 335.638L470.783 341.9L468.905 340.648L467.653 343.779L465.149 345.031L461.393 349.414L458.262 350.667L457.01 348.162L464.523 339.395L472.035 328.75L477.67 319.983L482.052 312.469H483.304L483.93 311.217Z" fill="#221665"/>
<path d="M385.642 461.502H389.398V464.633L383.764 466.512L384.39 474.026L385.642 484.045L385.016 484.671H381.259L377.503 468.39L371.869 467.764L370.617 465.26L371.869 464.007L385.642 461.502Z" fill="#FDFDFD"/>
<path d="M211.602 462.755L217.236 463.381L219.115 465.26L219.741 467.138V471.521L217.862 476.531L214.732 478.41H210.976L207.846 475.279L207.22 473.4V468.39L209.098 464.633L211.602 462.755Z" fill="#231765"/>
<path d="M165.275 450.857L169.031 451.483L172.161 454.614V460.876L169.657 464.633L167.153 466.512H163.397L160.267 464.007L159.641 462.755V456.493L161.519 452.736L165.275 450.857Z" fill="#241865"/>
<path d="M297.37 245.467L299.874 246.093L305.508 261.748V263H306.76L308.639 254.86L311.769 246.719L314.899 246.093V249.85L309.265 265.505L307.386 268.01H303.63L300.5 260.495L296.744 249.85V246.093L297.37 245.467Z" fill="#0D063F"/>
<path d="M257.929 469.017L262.311 470.269L264.19 472.148L264.816 477.783L262.938 482.793L259.181 484.671L255.425 484.045L252.921 481.54L252.295 479.662V473.4L254.173 470.269L257.929 469.017Z" fill="#231865"/>
<path d="M489.565 397.005L490.817 397.631L487.686 400.136L483.93 403.267L483.304 405.771L483.93 407.65L482.052 408.902L481.426 411.407L472.035 416.417L462.645 420.8L460.141 420.174L458.889 417.669L468.279 411.407L477.044 405.771L487.686 398.257L489.565 397.005Z" fill="#0C0455"/>
<path d="M274.832 385.107H279.215L282.345 386.986L284.223 391.995L282.345 396.379L277.336 400.762L274.206 402.64L273.58 403.893L281.719 404.519L282.971 405.145V407.65L272.328 407.024L267.946 405.771L268.572 403.267L271.076 400.136L277.962 395.752L279.841 393.248V388.238L274.206 389.49L272.328 392.621H269.824L270.45 388.238L272.954 385.733L274.832 385.107Z" fill="#0D0555"/>
<path d="M197.829 455.867L201.585 456.493L200.959 462.129L198.455 472.774L195.951 476.531L192.821 477.783L187.813 477.157L184.682 474.652L184.056 472.774V468.39L185.308 466.512H187.186L189.691 472.774H192.821L197.203 456.493L197.829 455.867Z" fill="#FDFDFD"/>
<path d="M121.452 328.124L124.582 331.255L130.843 339.395L136.477 346.283L155.258 365.069L162.145 370.705L170.909 377.593L169.657 378.845L166.527 376.967L164.649 375.714V374.462L161.519 373.21L158.389 371.331L155.884 368.826L154.006 367.574V366.321L151.502 365.069L145.242 359.433L142.111 356.929L137.729 351.293L134.599 348.162L130.843 343.779L124.582 335.638L123.33 332.507L121.452 331.881L120.826 330.002L121.452 328.124Z" fill="#231862"/>
<path d="M259.181 177.838L265.442 178.464L268.572 181.595V190.362L266.694 192.867L262.938 194.119H259.181L257.929 189.736V181.595L259.181 177.838Z" fill="#FDFDFD"/>
<path d="M464.523 439.586L475.166 440.212L475.792 442.09L474.54 443.969L468.905 445.848V447.726H475.166L475.792 448.352V451.483L473.287 453.362L470.157 454.614L466.401 453.988L463.271 451.483L461.393 445.848L462.645 441.464L464.523 439.586Z" fill="#0F0659"/>
<path d="M150.25 112.714L155.884 113.34L160.267 117.724L160.893 118.976V123.36L159.015 126.49L155.884 127.743L149.624 122.107L145.242 118.35L146.494 115.219L150.25 112.714Z" fill="#FDFDFD"/>
<path d="M234.14 82.6571L237.896 83.2833L237.27 84.5357L232.887 85.1619V86.4143L225.375 88.2929L224.123 89.5452L220.993 90.7976L214.732 93.9286L211.602 97.0595L207.846 98.3119L206.594 99.5643L202.837 100.19L202.211 102.069L199.707 104.574L193.447 107.705L190.317 110.21H189.065V111.462H187.812L187.186 113.34L184.682 113.967L184.056 115.845L179.048 120.229L174.666 125.238L172.787 127.117L172.161 128.369H170.909L169.657 132.752L167.779 132.126L167.153 135.257L165.275 135.883L163.397 137.762L162.771 136.51L169.031 128.369L173.414 123.986L177.796 118.976L184.056 113.34L192.195 106.452L202.837 98.9381L215.358 91.4238L231.009 83.9095L234.14 82.6571Z" fill="#110953"/>
<path d="M470.157 150.286H473.287L475.166 153.417L474.54 155.921L470.157 159.679L463.897 164.062L462.019 164.688L460.767 164.062V165.314L458.889 165.94L458.262 163.436L470.157 155.295L464.523 157.174L457.01 160.305H453.88L452.628 157.8L457.636 155.295L470.157 150.286Z" fill="#0E073F"/>
<path d="M487.686 229.186H490.191L489.565 239.831L488.313 247.971H485.808V239.831H479.548L468.279 238.579L467.027 237.326L467.653 234.821L482.678 235.448L486.434 236.074L487.06 229.812L487.686 229.186Z" fill="#0F0752"/>
<path d="M123.33 145.276L125.834 145.902L124.582 152.79L139.607 159.052L140.859 160.305L140.233 162.81L135.851 162.183L124.582 157.8H122.078L120.2 162.81H117.696L118.322 157.174L123.33 145.276Z" fill="#0D0553"/>
<path d="M282.971 245.467L286.101 246.093L286.727 251.729V264.879L296.118 264.252L297.996 264.879V268.01H283.597L282.345 264.252V247.345L282.971 245.467Z" fill="#140E3B"/>
<path d="M285.475 472.148H289.857L292.988 473.4L294.24 477.157L293.614 484.045L291.109 486.55H284.849V472.774L285.475 472.148Z" fill="#231864"/>
<path d="M375.625 467.764L378.129 468.39L380.633 479.662V484.045L377.503 484.671L376.251 485.298L368.739 470.895L369.365 469.017L375.625 467.764Z" fill="#221666"/>
<path d="M440.107 103.948L443.237 104.574V107.079L438.229 111.462L431.343 117.098L431.969 120.855L436.351 125.864V128.995L433.847 127.743L428.212 122.107L425.082 117.724L428.839 113.34L435.725 107.705L440.107 103.948Z" fill="#0C0538"/>
<path d="M197.829 68.2548L200.959 70.1333L207.22 81.4048L208.472 83.9095L215.984 80.1524H219.741V82.031L210.976 87.0405L206.594 88.919L203.464 83.9095L198.455 75.1429L196.577 71.3857V68.881L197.829 68.2548Z" fill="#0C053B"/>
<path d="M232.888 460.876H238.522L239.774 461.502H242.904L244.156 465.886L244.782 467.764H246.034L246.66 471.521H247.913V483.419L246.66 485.924H245.408L243.53 480.288L239.148 464.007L236.018 463.381L233.514 462.755L232.888 460.876Z" fill="#0B0354"/>
<path d="M124.582 219.793L127.713 220.419L126.46 222.924L121.452 225.429L122.078 234.821L115.818 232.943L110.183 231.064L109.557 229.186L115.818 226.681H117.696V224.802L113.94 226.681L112.061 226.055L111.435 224.802L120.2 221.045L124.582 219.793Z" fill="#0F0755"/>
<path d="M349.957 174.707H357.47L359.348 175.96H358.096V177.212L356.844 177.838L349.331 178.464L349.957 190.362L349.331 197.25H346.201L345.575 195.998V175.96L349.957 174.707Z" fill="#0B0353"/>
<path d="M358.096 379.471L360.6 381.976L369.991 394.5L369.365 397.005L366.234 396.379L363.73 393.248L361.852 391.995V390.743L354.966 391.995L354.34 390.117L354.966 381.976L358.096 380.724V379.471Z" fill="#110950"/>
<path d="M130.217 133.379H133.973L135.851 135.257L133.347 135.883L133.973 137.762L136.477 139.014L139.607 142.771L141.485 142.145L143.99 137.136H147.746L146.494 137.762L144.616 143.398L142.738 145.276L143.99 148.407L145.242 150.286V152.79L141.485 152.164L135.851 144.65L129.591 135.883L130.217 133.379Z" fill="#0B0537"/>
<path d="M408.179 75.1429L410.683 76.3952V82.031L407.553 95.181L406.301 96.4333L405.675 93.9286V90.7976L403.797 88.9191H405.049L406.301 82.6571V80.1524L400.667 84.5357L400.041 82.6571H398.162V85.7881L395.658 86.4143L394.406 83.9095L406.301 75.7691L408.179 75.1429Z" fill="#10084E"/>
<path d="M372.495 358.807H373.747V360.06L363.104 365.069L350.583 369.452L336.81 373.21L324.29 375.714L319.907 376.34H311.143V375.714L314.899 375.088H320.533L321.159 373.836L327.42 373.21L329.924 372.583H332.428V371.331L336.81 370.705L343.071 369.452L343.697 368.2H348.079L352.461 367.574L353.087 365.695L359.348 365.069L359.974 363.19L361.226 362.564H364.982V361.312L370.617 360.06L372.495 358.807Z" fill="#0D054F"/>
<path d="M220.993 370.705H222.871V374.462L215.358 390.743H212.228L212.854 386.36L217.236 376.967L216.61 376.34L212.228 375.714L210.976 373.836L214.106 372.583L219.115 371.957L220.993 370.705Z" fill="#0C0537"/>
<path d="M301.752 97.6857L308.639 102.069L315.525 105.826L320.533 108.331L323.664 110.21V111.462L325.542 110.836L326.168 112.088L328.672 112.714L330.55 114.593L334.306 115.219L336.184 116.471V117.724L339.315 118.35L341.819 118.976V120.229H346.201L353.087 123.36L358.722 124.612L363.104 125.864V126.49H358.722L343.697 122.107L330.55 116.471L318.655 110.21L304.882 101.443L301.752 98.9381V97.6857Z" fill="#0C053B"/>
<path d="M282.345 25.0476H311.769L333.68 27.5524L337.437 28.1786V28.8048H328.672L318.029 27.5524L307.386 26.9262H277.336L273.58 27.5524L261.685 28.8048H256.677V28.1786L275.458 25.6738L282.345 25.0476Z" fill="#0B0434"/>
<path d="M339.941 246.719H345.575L344.323 248.598H343.071L343.697 256.112H347.453L346.827 257.99H343.697V268.01H339.941L339.315 259.869V249.224L339.941 246.719Z" fill="#0D0554"/>
<path d="M187.186 83.2833L189.691 83.9095L193.447 85.7881L194.073 87.6667L197.203 88.919L196.577 90.1714L194.073 90.7976L190.943 93.3024L189.065 94.5548V101.443L186.56 102.069L184.682 97.6857L182.804 91.4238L183.43 85.7881H185.308L187.186 90.7976L189.691 90.1714L191.569 88.919V87.0405L187.186 83.9095V83.2833Z" fill="#0B043A"/>
<path d="M284.223 71.3857H308.639L322.411 72.6381L338.689 75.769V77.0214L332.428 76.3952L326.168 75.1429L315.525 73.8905H306.76L306.134 73.2643H282.971L281.093 73.8905H271.076L272.328 72.6381L284.223 71.3857Z" fill="#110957"/>
<path d="M283.597 460.25L285.475 460.876H309.891L310.517 462.129L309.891 463.381L308.639 462.755L308.013 463.381L306.134 464.007L303.63 463.381V462.129H299.248L297.996 462.755L294.24 461.502V462.755L296.744 464.007H294.866L291.735 465.26V466.512L286.727 467.138L285.475 466.512V465.26H282.345L280.467 464.007L279.841 461.502H282.971L283.597 460.25Z" fill="#080057"/>
<path d="M352.461 51.9738H360.6L364.982 54.4786L367.486 58.8619V64.4976L366.234 63.2452V61.3667L364.356 61.9929L363.104 61.3667L361.226 56.9833L359.348 55.731H354.966L351.209 58.2357L347.453 57.6095L348.705 54.4786L352.461 51.9738Z" fill="#0D0554"/>
<path d="M229.757 373.836L234.766 374.462L236.644 375.714V381.35L233.514 384.481L227.879 383.229L226.627 381.35V376.967L229.757 373.836Z" fill="#1B163F"/>
<path d="M288.605 385.733H292.988L295.492 387.612L296.118 391.995L294.866 394.5L292.988 395.752H289.231L284.849 392.621L285.475 388.864L288.605 385.733Z" fill="#0E0643"/>
<path d="M403.171 446.474H407.553L406.301 447.726L400.041 449.605L395.032 450.857L390.65 451.483L386.894 453.362L385.016 453.988V452.736L382.511 453.362V454.614L376.877 455.24L362.478 457.119L360.6 457.745L356.844 457.119L357.47 455.867L379.381 452.11L398.789 447.726L403.171 446.474Z" fill="#0F0753"/>
<path d="M461.393 269.262L471.409 271.767L482.052 274.898L482.678 276.776L480.8 278.655L474.54 277.402L460.767 273.019V269.888L461.393 269.262Z" fill="#0D0554"/>
<path d="M364.982 373.21L368.113 373.836L372.495 383.229L374.373 386.986V388.238L378.129 389.49L376.877 391.995H373.121L369.365 387.612L366.234 380.098L364.982 376.34V373.21Z" fill="#0C0539"/>
<path d="M123.33 252.981L129.591 253.607V256.112L111.435 259.869L108.305 259.243L107.679 256.738L113.314 254.86L123.33 252.981Z" fill="#0D063B"/>
<path d="M460.141 127.117L461.393 127.743L462.019 129.621V134.005L460.141 137.762L455.132 142.145L451.376 143.398H446.994L445.742 141.519H450.75L446.994 140.267V139.64L452.628 138.388L457.01 134.631L458.263 128.369H459.515L460.141 127.117Z" fill="#0D063A"/>
<path d="M473.914 219.167H489.565L490.817 219.793V222.298L489.565 222.924L482.678 223.55H468.279L468.905 221.045L473.914 219.167Z" fill="#120A56"/>
<path d="M261.059 50.0952L263.564 50.7214L264.816 51.9738H267.946L269.198 55.1048V61.9929L267.32 65.1238L264.19 67.6286L260.433 68.881H255.425V68.2548L258.555 67.6286L261.685 64.4976L264.19 62.619L264.816 60.7405V56.3571L262.937 51.9738L261.059 50.0952Z" fill="#0D063C"/>
<path d="M245.408 245.467H249.791L254.173 247.971L255.425 250.476L254.799 253.607L252.295 252.355L249.791 249.224L246.66 248.598L243.53 250.476L244.156 252.981L246.66 254.233V255.486L244.156 256.738L241.652 256.112L240.4 255.486L239.774 249.85L242.904 246.719L245.408 245.467Z" fill="#0F083C"/>
<path d="M123.956 437.081L128.339 437.707L130.217 440.212L130.843 443.343L133.347 443.969L133.973 446.474L138.355 448.352L139.607 445.848L140.859 446.474L135.851 452.11L133.973 452.736L132.721 452.11V448.352L130.843 447.726L127.712 443.969L123.33 440.838L122.704 438.333L123.956 437.081Z" fill="#221860"/>
<path d="M331.176 45.0857L337.436 46.3381L340.567 48.8429L341.819 52.6L341.193 55.1048L338.689 53.8524L336.81 50.7214L334.306 49.469H329.298L326.794 51.3476L323.664 51.9738L322.411 51.3476L323.664 48.8429L327.42 45.7119L331.176 45.0857Z" fill="#0F0658"/>
<path d="M483.93 128.369H485.182L491.443 139.64L498.329 155.295L501.459 164.062L500.833 166.567L497.703 158.426L495.199 152.79L493.947 151.538L492.695 148.407L489.565 145.902L487.686 138.388L485.182 132.752L483.93 128.369Z" fill="#0B0437"/>
<path d="M277.962 397.005L279.215 398.257L273.58 403.893L281.719 404.519L282.971 405.145V407.65L272.328 407.024L267.946 405.771L268.572 403.267L271.076 400.136L274.832 397.631L277.962 397.005Z" fill="#23195A"/>
<path d="M421.952 86.4143L425.082 87.6667L423.83 90.1714L418.196 96.4333L414.44 100.817L413.188 102.695L412.561 100.817L411.309 101.443L410.683 99.5643L413.814 94.5548L420.7 87.0405L421.952 86.4143Z" fill="#0D0653"/>
<path d="M312.395 246.093H314.899V249.85L309.265 265.505L308.013 266.757L304.882 266.131L305.508 263H306.76L308.639 254.86L311.769 246.719L312.395 246.093Z" fill="#0E0650"/>
<path d="M478.296 166.567H480.8L479.548 169.071L473.287 172.202L462.645 176.586H460.767L460.141 172.829L473.914 167.819L478.296 166.567Z" fill="#0D073B"/>
<path d="M274.832 46.3381H276.084L279.215 50.0952L279.841 65.1238L276.71 65.75L275.458 63.8714L274.832 56.9833V46.3381Z" fill="#0C0539"/>
<path d="M169.031 88.2929L172.161 88.919L176.544 93.3024L181.552 99.5643L180.926 102.695H177.796L174.04 97.6857L168.405 91.4238L169.031 88.2929Z" fill="#0F0756"/>
<path d="M288.605 42.581H291.735L292.988 45.0857V60.7405L291.735 63.2452L291.109 60.1143H289.231V53.8524L288.605 42.581Z" fill="#0D0551"/>
<path d="M226.627 462.129H227.879V463.381L229.757 464.007V469.643L228.505 475.279L226.001 477.783L224.123 476.531V464.007L226.627 462.129Z" fill="#0B0356"/>
<path d="M160.267 321.236L163.397 322.488L169.031 328.75L171.535 331.881L170.283 335.012L167.779 337.517H166.527L164.649 335.638L165.901 333.133L165.275 330.002L162.145 326.871V325.619L160.267 324.993L159.641 321.862L160.267 321.236Z" fill="#0F0752"/>
<path d="M473.914 177.838H478.296L482.678 179.717L481.426 181.595H479.548L473.914 182.848L468.905 184.726L467.653 187.857L467.027 191.614H466.401V184.726L465.775 185.352L465.149 182.848L468.905 179.717L473.914 177.838Z" fill="#0C0639"/>
<path d="M276.084 108.331L276.71 109.583L266.068 115.845L255.425 120.855L242.278 125.238L229.131 128.369H222.871L225.375 127.117L235.392 125.238L252.295 120.229L264.816 114.593L274.206 109.583L276.084 108.331Z" fill="#110B3B"/>
<path d="M202.211 457.119L202.837 458.998H206.594L204.716 462.755L202.837 470.269L202.211 475.279L198.455 474.652L199.081 467.764L200.959 459.624H202.211V457.119Z" fill="#0C0456"/>
<path d="M464.523 184.1L467.027 184.726V189.736L468.279 192.24L471.409 195.371L476.418 195.998L477.67 198.502L473.287 199.755L467.653 197.876L465.149 194.745L463.897 190.362V185.979L464.523 184.1Z" fill="#0A034C"/>
<path d="M299.874 53.8524H300.5L301.126 58.8619L301.752 59.4881L303.004 55.731H303.63L304.256 60.7405L304.882 61.3667L313.647 61.9929L316.151 62.619V65.75L303.004 65.1238L300.5 63.8714L299.874 62.619V53.8524Z" fill="#0E0738"/>
<path d="M457.636 306.833L460.141 307.46L464.523 309.338V315.6L462.019 319.357L458.889 322.488H454.506L455.132 319.357L458.889 317.479L460.141 316.226V310.59L457.636 306.833Z" fill="#0E073B"/>
<path d="M234.14 82.6571L237.896 83.2833L237.27 84.5357L232.887 85.1619V86.4143L225.375 88.2929L224.123 89.5452L220.993 90.7976L214.732 93.9286L211.602 97.0595L207.846 98.3119L206.594 99.5643L202.211 100.817L200.959 101.443L201.585 99.5643L215.358 91.4238L231.009 83.9095L234.14 82.6571Z" fill="#0D0648"/>
<path d="M314.273 385.107H318.655L322.411 386.986L324.29 390.117V392.621L321.785 391.995L318.655 389.49L314.899 388.864L308.639 390.743L308.013 390.117L306.134 391.995L307.386 388.864L310.517 386.36L314.273 385.107Z" fill="#0E0655"/>
<path d="M468.279 286.795L472.035 287.421L473.914 288.674L472.661 294.31L469.531 297.44L466.401 296.188L465.775 290.552L468.279 286.795Z" fill="#FDFDFD"/>
<path d="M245.408 392.621H246.034L246.66 397.631L251.669 399.51L257.929 400.762L257.303 403.893L249.791 402.64L242.278 400.762L241.652 397.631L243.53 395.126L245.408 392.621Z" fill="#0D063A"/>
<path d="M334.306 385.107H339.315L341.193 386.986L340.567 390.117L336.81 392.621H332.428L331.176 386.986L334.306 385.107Z" fill="#FDFDFD"/>
<path d="M343.697 249.224H351.209L353.087 250.476V254.233L351.209 255.486H343.697L343.071 254.233V249.85L343.697 249.224Z" fill="#FDFDFD"/>
<path d="M317.403 187.857H318.655V192.24L315.525 195.998L312.395 197.25H307.386L303.63 195.371L302.378 191.614H303.63V192.867L312.395 193.493L315.525 190.362L317.403 187.857Z" fill="#100853"/>
<path d="M143.364 116.471L144.616 117.098L147.746 120.229L152.754 124.612L154.632 127.117L149.624 127.743L142.111 121.481L140.859 118.35L143.364 117.724V116.471Z" fill="#100854"/>
<path d="M430.717 372.583L431.969 373.21L428.839 375.714L427.586 378.219L423.83 379.471L421.952 381.35H420.074L419.448 383.229H418.196V385.107L412.561 387.612L410.057 390.117L405.675 390.743V391.995L403.171 393.248H400.667L400.041 394.5L397.536 395.752L395.032 395.126L406.927 388.864L418.822 381.35L430.091 373.21L430.717 372.583Z" fill="#0E0737"/>
<path d="M350.583 177.838H356.844L359.348 179.09L358.722 183.474L356.218 184.726H349.957V178.464L350.583 177.838Z" fill="#FDFDFD"/>
<path d="M386.268 67.0024L390.024 67.6286L393.154 71.3857L392.528 74.5167L391.902 75.1429H385.642L383.764 73.8905L384.39 70.1333L386.268 67.0024Z" fill="#FDFDFD"/>
<path d="M256.051 46.3381H263.564L266.694 49.469L267.946 51.9738L264.816 52.6L262.937 50.7214H254.799L253.547 50.0952V48.8429L249.165 51.9738L250.417 49.469L252.295 47.5905L256.051 46.3381Z" fill="#0E0556"/>
<path d="M162.771 121.481H164.649L163.397 125.238L159.641 130.248L157.136 132.752L154.632 131.5L150.25 128.369L152.754 127.117L155.258 126.49H157.762H159.015L160.267 123.36L162.771 121.481Z" fill="#0B0537"/>
<path d="M329.924 251.729L331.176 253.607L335.558 264.252L336.184 268.01L333.68 268.636L331.802 266.757L330.55 262.374L329.298 261.748H330.55L328.672 258.617V253.607L329.924 251.729Z" fill="#0F0933"/>
<path d="M277.336 175.333H281.093V187.857H279.841V190.988L277.962 191.614L277.336 190.988V175.333Z" fill="#0F0658"/>
<path d="M282.971 245.467L286.101 246.093V264.252H283.597L282.971 256.738V245.467Z" fill="#0A0253"/>
<path d="M381.885 93.3024L385.016 94.5548L395.032 100.817L408.179 110.836L415.692 117.724L416.318 118.976L411.309 116.471V114.593L408.805 113.967V112.714L406.301 111.462L399.415 105.826L398.162 107.079L396.91 104.574L390.024 100.19L388.146 98.9381V97.6857H386.268L384.39 95.8071L381.885 94.5548V93.3024Z" fill="#0C054B"/>
<path d="M425.708 128.995L428.839 132.126L434.473 139.014L442.611 151.538L448.246 162.183L448.872 165.94L447.62 165.314L444.49 158.426L443.238 157.8V155.921L441.985 154.669L440.733 151.538L438.229 148.407L436.351 144.65L434.473 142.145L433.221 141.519L433.847 139.64H432.595L430.717 137.136V135.883L428.213 134.631L425.708 131.5V128.995Z" fill="#100854"/>
<path d="M461.393 103.948L464.523 106.452V107.705L467.027 108.957L468.905 109.583L469.531 112.714L474.54 118.976L477.044 123.986L482.052 132.752L481.426 134.631L473.914 122.107L466.401 112.088L462.019 106.452L461.393 103.948Z" fill="#0C0537"/>
<path d="M574.706 378.219H579.088L577.836 381.35L574.706 380.724L574.08 383.229L572.202 384.481L571.576 383.855V380.724L563.437 381.35L559.055 381.976H552.169L553.421 380.724L574.706 378.219Z" fill="#0A0355"/>
<path d="M481.426 209.774L482.052 211.652H483.93L482.678 214.157L475.792 219.167L469.531 221.045L467.653 222.924L468.279 220.419L473.288 216.036L480.8 210.4L481.426 209.774Z" fill="#0C0638"/>
<path d="M202.838 397.005L206.594 398.257L222.245 404.519L237.896 409.529L242.904 410.781V411.407H238.522L227.879 408.276L222.245 406.398L217.236 404.519L212.854 402.64L206.594 400.762L202.838 398.257V397.005Z" fill="#100A37"/>
<path d="M378.129 367.574L381.259 368.2L384.39 374.462L385.016 378.219L383.764 380.724L382.511 380.098V378.845L380.633 378.219L377.503 370.079L378.129 367.574Z" fill="#0D0555"/>
<path d="M307.386 174.707H313.647L316.777 176.586L318.655 179.717V183.474L316.151 182.848L313.647 179.09L308.639 178.464L305.508 177.838L306.76 175.333L307.386 174.707Z" fill="#0B043A"/>
<path d="M403.797 56.9833L406.927 58.2357L414.44 62.619L416.318 63.2452V64.4976L419.448 65.75L428.839 72.6381L436.977 78.9V80.1524L439.481 81.4048L442.611 84.5357L440.107 83.9095L434.473 78.9L423.83 70.7595L412.561 63.2452L403.797 58.2357V56.9833Z" fill="#0E0837"/>
<path d="M363.73 61.3667H366.234L366.86 67.0024L363.104 72.6381L359.348 74.5167L356.844 73.8905L359.974 71.3857L358.722 70.1333L361.852 67.0024L363.73 61.3667Z" fill="#0D0553"/>
<path d="M242.904 63.2452L245.408 64.4976V69.5071L242.278 73.2643L238.522 75.1429H233.514L236.018 73.2643L234.14 72.0119L238.522 71.3857L241.652 68.2548L242.278 63.8714L242.904 63.2452Z" fill="#0D063A"/>
<path d="M409.431 78.9H410.057V84.5357L407.553 95.181L406.301 96.4333L405.675 93.9286V90.7976L403.797 88.919H405.049L406.301 82.6571L407.553 79.5262L409.431 78.9Z" fill="#0B043A"/>
<path d="M100.793 294.31L106.427 299.945L110.809 309.964L109.557 313.095L107.053 310.59V307.46L104.549 305.581V302.45L102.045 300.571L102.671 298.693L100.793 296.188V294.31Z" fill="#1E1361"/>
<path d="M132.721 350.04L137.103 353.798L141.485 358.807L150.876 367.574L155.884 371.331V372.583L158.389 373.836L162.145 376.967L160.267 377.593L152.128 370.705L143.99 363.19L132.721 351.919V350.04Z" fill="#0E0738"/>
<path d="M332.428 114.593L336.184 116.471V117.724L339.315 118.35L341.819 118.976V120.229H346.201L353.087 123.36L358.722 124.612L363.104 125.864V126.49H358.722L343.697 122.107L333.054 117.724L332.428 114.593Z" fill="#0C0448"/>
<path d="M92.6542 383.229L95.1583 384.481L104.549 391.995L116.444 400.762L120.826 403.893L119.574 404.519L114.566 402.014L113.94 400.136H112.061L111.435 398.883H109.557V397.631L107.679 397.005L105.175 394.5V393.248L102.045 391.995L98.9146 391.369L97.6625 388.864L94.5323 385.733L92.6542 384.481V383.229Z" fill="#0D073B"/>
<path d="M123.956 238.579L127.086 239.205L129.591 251.102V253.607L125.834 252.981L124.582 245.467V241.083L125.208 239.831L123.956 238.579Z" fill="#130A58"/>
<path d="M247.286 193.493L250.417 194.119L249.791 197.25H240.4L234.766 196.624L234.14 194.119L235.392 195.371L237.896 194.745L238.522 194.119L247.286 193.493Z" fill="#231860"/>
<path d="M485.808 316.226L486.434 318.105L481.426 326.871L475.792 335.012L472.661 336.89L470.783 338.769L469.531 337.517L472.661 334.386L475.166 333.133L473.914 332.507L476.418 330.002L478.296 326.245H480.174L481.426 323.114L485.808 316.226Z" fill="#100756"/>
<path d="M135.851 314.348L138.355 314.974V321.236L142.737 325.619L140.859 327.498L138.355 326.245L135.225 323.114L134.599 321.236V315.6L135.851 314.348Z" fill="#1A1154"/>
<path d="M438.855 455.24L441.985 458.371L446.994 466.512V469.643H445.116L446.368 470.895L443.238 470.269L441.985 465.26L438.855 457.119V455.24Z" fill="#1E193D"/>
<path d="M268.572 249.85L269.824 250.476L272.328 258.617V259.869H264.816L268.572 249.85Z" fill="#FDFDFD"/>
<path d="M117.696 226.055L118.948 226.681V232.943L113.314 232.317L109.557 230.438V229.186L117.696 226.055Z" fill="#FDFDFD"/>
<path d="M358.722 314.974L359.974 315.6L357.47 318.105H356.218V319.357L353.087 321.236L349.957 324.367L345.575 326.871L342.445 329.376L338.062 331.255L336.81 332.507L331.802 335.012L329.298 334.386L338.689 329.376L349.957 321.862L356.218 316.852L358.722 314.974Z" fill="#120B4C"/>
<path d="M144.616 314.348H145.868L147.746 320.61V324.367L145.242 327.498L140.859 328.124L140.233 326.245L143.364 323.74L144.616 322.488V318.105L143.99 315.6L144.616 314.348Z" fill="#0D063A"/>
<path d="M184.056 82.031L187.813 83.9095L192.195 87.0405L191.569 89.5452L189.065 91.4238L186.56 90.7976L184.682 85.7881L184.056 82.031Z" fill="#FDFDFD"/>
<path d="M332.428 56.9833H336.81L340.567 58.2357V64.4976L339.941 65.1238H336.184L337.436 60.1143H332.428L331.802 57.6095L332.428 56.9833Z" fill="#0E073A"/>
<path d="M304.256 47.5905H304.882V51.9738H310.517L315.525 52.6L316.151 55.1048L315.525 55.731H309.265L304.882 54.4786V53.2262H303.63V48.2167L304.256 47.5905Z" fill="#0E0838"/>
<path d="M333.68 370.705H337.436L338.062 372.583L328.046 375.088L319.907 376.34H311.143V375.714L314.899 375.088H320.533L321.159 373.836L327.42 373.21L329.924 372.583H332.428V371.331L333.68 370.705Z" fill="#0E0653"/>
<path d="M160.267 139.64L162.145 140.267L160.267 142.771L159.641 144.65L157.763 146.529L155.884 149.66L152.128 157.174L150.876 157.8L148.998 161.557L146.494 167.193L145.242 168.445L145.868 164.688L150.876 154.669L157.763 143.398L160.267 139.64Z" fill="#100855"/>
<path d="M383.137 71.3857L384.39 73.8905L385.642 74.5167L393.154 75.1429L394.406 78.2738L393.154 78.9H387.52L383.764 77.0214L381.885 75.1429V73.8905H383.137V71.3857Z" fill="#100757"/>
<path d="M323.037 50.7214L326.794 51.3476L325.542 55.731L326.168 61.9929L328.046 64.4976H325.542L323.037 61.3667V59.4881L321.785 58.8619V51.3476L323.037 50.7214Z" fill="#0A0337"/>
<path d="M252.295 48.8429H253.547V50.0952L254.799 50.7214L252.921 53.2262V61.3667L250.417 58.8619L247.912 58.2357L248.539 52.6L252.295 48.8429Z" fill="#0B0537"/>
<path d="M354.34 187.231L359.348 187.857L363.104 193.493L363.73 196.624L361.226 197.25L358.722 194.745L354.966 189.11L354.34 187.231Z" fill="#0E073E"/>
<path d="M274.832 385.107H279.215L282.345 386.986V388.238L279.841 387.612V386.36H278.589V388.238L274.206 389.49L272.328 392.621H269.824L270.45 388.238L272.954 385.733L274.832 385.107Z" fill="#100855"/>
<path d="M325.542 250.476H326.794L329.298 258.617V259.869H322.411L323.038 256.112L325.542 250.476Z" fill="#FDFDFD"/>
<path d="M132.721 97.0595H134.599L133.973 99.5643L130.843 102.695L129.591 105.2L128.339 108.331H127.086V106.452L123.956 112.088L121.452 111.462L123.33 108.331L128.965 101.443L132.721 97.0595Z" fill="#1A105C"/>
<path d="M134.599 135.883L140.859 136.51L143.364 137.762L142.737 140.893L140.859 143.398L138.355 142.145L134.599 137.762V135.883Z" fill="#FDFDFD"/>
<path d="M459.515 289.926H463.271L462.645 292.431H460.141L459.515 294.31L452.628 295.562L452.002 292.431L455.758 290.552L459.515 289.926Z" fill="#0D054C"/>
<path d="M331.176 179.09H332.428L334.932 185.979V188.483H328.046L329.924 182.848L331.176 179.09Z" fill="#FDFDFD"/>
<path d="M187.186 83.2833L189.691 83.9095L193.447 85.7881L194.073 87.6667L197.203 88.919L196.577 90.1714L194.073 90.7976L190.943 93.3024L189.065 94.5548L187.813 97.0595V93.3024L186.56 92.05L191.569 88.919V87.0405L187.186 83.9095V83.2833Z" fill="#120B3E"/>
<path d="M473.913 335.012L475.166 335.638L470.783 341.9L468.905 340.648L467.653 343.779L465.149 345.031L461.393 349.414L458.262 350.667L457.01 348.162H458.889L459.515 348.788L460.767 345.657L463.271 344.405L469.531 338.143H471.409L473.913 335.012Z" fill="#24176A"/>
<path d="M246.66 254.86L252.295 255.486L255.425 257.99V259.243L253.547 259.869L252.295 262.374L251.043 259.869L244.156 257.364L243.53 255.486L246.66 254.86Z" fill="#0D0555"/>
<path d="M226.627 65.75L229.131 68.2548L229.757 69.5071L236.644 73.2643L235.392 74.5167L231.635 75.1429L226.627 70.7595L225.375 66.3762L226.627 65.75Z" fill="#0B0357"/>
<path d="M468.279 156.548L470.783 159.052L463.897 164.062L462.019 164.688L460.767 164.062V165.314L458.889 165.94L458.263 163.436L468.279 156.548Z" fill="#0E073C"/>
<path d="M406.301 79.5262H406.927L406.301 84.5357L405.049 88.919L401.293 87.6667L399.415 85.7881L401.919 82.6571L406.301 79.5262Z" fill="#FDFDFD"/>
<path d="M354.966 382.602L357.47 383.855L361.226 389.49L358.096 391.369L354.966 391.995L354.34 390.117L354.966 382.602Z" fill="#FDFDFD"/>
<path d="M237.896 184.1H248.539L249.165 187.231H237.896L237.27 184.726L237.896 184.1Z" fill="#23195D"/>
<path d="M398.163 82.6571H400.041V87.0405L397.536 88.2929L394.406 88.919L392.528 90.1714L389.398 89.5452V87.0405L393.154 84.5357L396.284 85.7881H398.163V82.6571Z" fill="#130A5A"/>
<path d="M445.116 443.969H445.742L446.994 457.119H445.116L440.733 450.857V449.605L443.238 448.352L443.864 447.1H445.116V443.969Z" fill="#100855"/>
<path d="M352.461 378.219H353.087L353.714 381.35V391.995L353.087 398.257H351.835L351.209 396.379V387.612L352.461 378.219Z" fill="#1E1363"/>
<path d="M214.106 286.795L215.984 288.674L219.115 295.562L222.245 301.198L227.879 308.712L230.383 311.843H228.505L226.001 308.712L223.497 306.833V304.955L222.245 304.329L218.489 299.319L215.358 291.179L214.106 286.795Z" fill="#16113A"/>
<path d="M182.178 78.2738L185.934 78.9L186.56 83.2833L184.682 82.6571V85.7881H183.43L182.804 88.919L181.552 87.0405L180.3 82.6571L180.926 79.5262L182.178 78.2738Z" fill="#0C0544"/>
<path d="M350.583 259.869H353.714L357.47 265.505L358.096 268.01H354.34L349.957 261.748L350.583 259.869Z" fill="#0C053B"/>
<path d="M295.492 264.252L297.996 264.879V268.01H287.353L286.101 266.131H287.353V264.879L295.492 264.252Z" fill="#180E55"/>
<path d="M116.444 224.802H117.696V226.681L108.931 229.812L106.427 231.69L104.549 231.064L105.175 227.933L110.183 225.429H113.314H115.192L116.444 224.802Z" fill="#0E073C"/>
<path d="M117.07 167.819H120.2L120.826 170.324L115.818 173.455L114.566 174.081L113.314 178.464H112.688V174.707L112.061 172.829L113.94 169.698L117.07 167.819Z" fill="#170E5A"/>
<path d="M468.905 340.021L470.157 342.526L463.271 350.667L460.141 353.798L458.889 351.293L462.645 346.91L465.775 343.779H467.653L468.279 340.648L468.905 340.021Z" fill="#0F0657"/>
<path d="M388.772 135.883L390.024 136.51L386.268 142.771L385.016 145.902H383.764L383.137 152.164H381.259L380.633 156.548L380.007 159.052H378.755L378.129 160.305L378.755 155.295L383.137 145.276L386.894 138.388L388.772 135.883Z" fill="#0E0656"/>
<path d="M334.932 186.605L336.184 189.11L336.81 192.24H327.42L326.168 192.867L327.42 187.857H333.68L334.932 188.483V186.605Z" fill="#211A4A"/>
<path d="M453.88 352.545L454.506 355.05L452.628 355.676V357.555L450.124 358.181V360.06L447.62 360.686V362.564L445.116 363.19L444.49 365.069L441.359 364.443L444.49 360.686L447.62 358.807L453.88 352.545Z" fill="#231766"/>
<path d="M334.306 46.3381L338.689 46.9643L341.193 50.0952L341.819 52.6L341.193 55.1048L338.689 53.8524L336.81 50.7214L333.68 48.8429L334.306 46.3381Z" fill="#0D0553"/>
<path d="M511.476 379.471H512.728V380.724H511.476V381.976L507.094 385.733H505.842L505.216 387.612H503.338V388.864H502.085V390.117L495.199 394.5L491.443 397.005L492.695 394.5L500.833 388.238L507.094 383.229L511.476 379.471Z" fill="#110A4F"/>
<path d="M215.984 80.1524H219.741V82.031L210.976 87.0405L209.724 84.5357L212.228 82.031L215.984 80.1524Z" fill="#0F074E"/>
<path d="M132.095 444.595H133.347L133.973 446.474L138.355 448.352L139.607 445.848L140.859 446.474L135.851 452.11L133.973 452.736L132.721 452.11V448.352L130.843 447.726L131.469 445.221L132.095 444.595Z" fill="#0E083B"/>
<path d="M151.502 311.217L154.632 311.843V313.095H155.884L156.51 317.479L155.258 320.61L152.754 321.862L152.128 321.236V313.095L151.502 311.217Z" fill="#0E064B"/>
<path d="M472.035 205.39H480.174V206.017L474.54 206.643V207.895L478.296 208.521V209.148L467.027 209.774V206.643L467.653 206.017L472.035 205.39Z" fill="#1C1450"/>
<path d="M464.523 184.1L467.027 184.726V189.736L469.531 194.745H467.653L467.027 196.624L465.149 194.745L463.897 190.362V185.979L464.523 184.1Z" fill="#221761"/>
<path d="M282.345 25.0476H289.231L287.979 26.3L284.223 26.9262H277.336L273.58 27.5524L261.685 28.8048H256.677V28.1786L275.458 25.6738L282.345 25.0476Z" fill="#110B38"/>
<path d="M132.721 286.169H137.729L141.485 288.674V291.179L138.981 291.805V290.552L133.347 289.926L132.095 289.3L132.721 286.169Z" fill="#1D135E"/>
<path d="M304.882 229.186L307.386 229.812V232.317L296.118 232.943L296.744 229.812L304.882 229.186Z" fill="#0E0647"/>
<path d="M457.636 164.062L460.767 165.314V164.062L464.523 164.688L463.271 165.314V166.567H468.279V167.819L464.523 168.445H457.636L456.384 165.314L457.636 164.062Z" fill="#1D125E"/>
<path d="M440.107 132.752L441.985 134.005L442.611 137.136L446.994 139.014V140.267L451.376 140.893L450.75 142.145H446.368H444.49L440.733 137.762L440.107 136.51V132.752Z" fill="#0B0354"/>
<path d="M202.211 100.19V102.069L199.707 104.574L193.447 107.705L190.317 110.21H189.065V111.462H187.813L187.186 113.34L184.056 113.967L187.186 110.836L192.195 106.452L200.333 100.817L202.211 100.19Z" fill="#0E0751"/>
<path d="M177.796 64.4976L179.674 65.1238L167.779 73.2643L165.901 74.5167V72.6381L170.283 67.6286L174.666 65.1238L177.796 64.4976Z" fill="#0C053C"/>
<path d="M126.46 191.614L129.591 192.24L128.339 204.764L126.46 202.886L125.834 192.867L126.46 191.614Z" fill="#1C125D"/>
<path d="M234.14 82.6571L237.896 83.2833L237.27 84.5357L232.887 85.1619V86.4143L225.375 88.2929L224.123 89.5452L220.993 90.7976L218.489 92.05V90.7976L221.619 88.2929L231.009 83.9095L234.14 82.6571Z" fill="#0D064E"/>
<path d="M229.131 55.1048H230.383V56.3571L232.261 56.9833L229.757 59.4881L229.131 63.8714L231.009 70.1333L229.131 69.5071L227.253 67.0024L226.627 62.619L227.879 58.8619L226.627 58.2357L229.131 55.1048Z" fill="#0A0336"/>
<path d="M363.73 470.269L365.608 472.148L367.486 476.531V478.41H361.852L362.478 472.774L363.73 470.269Z" fill="#23195A"/>
<path d="M153.38 328.75L155.884 329.376L161.519 335.638L160.267 339.395L157.762 336.264L154.006 331.881L153.38 328.75Z" fill="#0F0938"/>
<path d="M475.792 254.86L478.296 255.486L475.792 265.505L473.288 266.131L472.661 264.252L475.166 255.486L475.792 254.86Z" fill="#150D4B"/>
<path d="M145.868 334.386L148.998 335.012L155.258 341.274L152.754 341.9H150.876L145.868 336.264V334.386Z" fill="#1A1159"/>
<path d="M440.107 103.948L443.237 104.574V107.079L438.229 111.462L436.351 109.583L436.977 108.331L435.725 107.705L440.107 103.948Z" fill="#0D0550"/>
<path d="M423.83 465.26H426.96V467.764L423.83 469.643L419.448 470.269L418.196 467.764L423.83 465.26Z" fill="#FDFDFD"/>
<path d="M241.652 248.598L244.782 249.224L243.53 250.476L244.156 252.981L246.66 254.233V255.486L244.156 256.738L241.652 256.112L240.4 255.486L239.774 249.85L241.652 248.598Z" fill="#0D0639"/>
<path d="M469.531 170.95L470.783 171.576L470.157 173.455L462.645 176.586H460.767L460.141 172.829L463.897 172.202L467.027 171.576L469.531 170.95Z" fill="#140C58"/>
<path d="M151.502 78.2738H154.632L153.38 80.1524H152.128L148.372 83.9095H146.494L145.868 86.4143H143.99L143.364 88.919L141.485 90.7976L142.111 92.05L140.233 92.6762L138.355 90.7976L145.868 83.2833L150.876 78.9L151.502 78.2738Z" fill="#1D135C"/>
<path d="M277.963 397.005L279.215 398.257L276.084 401.388L272.954 402.014V403.893H271.076L270.45 403.267L268.572 405.145L269.198 402.014L274.832 397.631L277.963 397.005Z" fill="#150C5B"/>
<path d="M117.696 190.988L119.574 191.614L118.948 201.633L119.574 202.886L117.696 202.26V201.007H116.444L115.818 196.624L117.07 191.614L117.696 190.988Z" fill="#231862"/>
<path d="M274.832 46.3381H276.084L279.215 50.0952L276.71 56.9833H274.832V46.3381Z" fill="#0D0558"/>
<path d="M334.932 475.279L336.184 477.157L339.941 488.429V489.681H337.436V484.671H336.184L336.81 489.055H335.558L334.932 484.045V475.279Z" fill="#140D47"/>
<path d="M120.826 223.55H123.956L121.452 225.429L122.078 234.821L117.07 233.569L118.948 232.943L118.322 225.429L120.2 226.055L120.826 223.55Z" fill="#1F155D"/>
<path d="M398.163 464.633L400.041 465.26L402.545 471.521L400.667 472.774H397.536V465.886L398.163 464.633Z" fill="#221958"/>
<path d="M132.095 132.126L142.738 133.379V134.005H138.981V135.257H143.99V135.883L137.103 136.51L134.599 135.883L133.973 137.762L132.721 135.257L134.599 134.631L130.843 133.379L132.095 132.126Z" fill="#180F57"/>
<path d="M232.261 457.745L237.27 458.371L239.774 458.998L242.278 458.371L242.904 460.876L239.148 462.129L238.522 461.502L232.261 460.25L231.635 458.371L232.261 457.745Z" fill="#FDFDFD"/>
<path d="M358.096 379.471L360.6 381.976L364.356 386.986V388.238L361.226 387.612L359.348 385.107L354.966 382.602L356.844 380.724H358.096V379.471Z" fill="#221763"/>
<path d="M231.009 375.714L234.14 376.34L234.766 380.098L231.009 383.229V381.35L229.131 380.724L229.757 377.593L231.009 375.714Z" fill="#FDFDFD"/>
<path d="M209.098 245.467H209.724L210.976 268.636L211.602 274.898L209.724 272.393L209.098 270.514V245.467Z" fill="#0E074F"/>
<path d="M236.018 469.643H237.27L237.896 470.895V477.157L233.514 476.531L232.888 474.026L236.018 469.643Z" fill="#120B41"/>
<path d="M145.242 447.1H146.494V453.988L145.242 455.24L141.485 453.362L142.111 450.231L145.242 447.1Z" fill="#221956"/>
<path d="M308.639 254.86L310.517 256.738L309.265 265.505L308.013 266.757L304.882 266.131L305.508 263H306.76L308.639 254.86Z" fill="#160C5B"/>
<path d="M469.531 220.419H478.296V222.298L476.418 223.55H468.279L468.905 221.045L469.531 220.419Z" fill="#09014D"/>
<path d="M349.331 367.574H354.966L352.461 368.826L339.941 372.583H338.062L339.315 370.079L343.071 369.452L343.697 368.2H348.079L349.331 367.574Z" fill="#0F084D"/>
<path d="M467.653 337.517L469.531 338.769L462.645 345.657L459.515 349.414L458.263 346.91L463.271 340.648L464.523 341.274L467.027 339.395L467.653 337.517Z" fill="#0B0356"/>
<path d="M459.515 316.852H462.019L462.645 318.731L458.889 322.488H454.506L455.132 319.357L458.889 317.479L459.515 316.852Z" fill="#0F0844"/>
<path d="M339.315 77.0214H343.697L357.47 81.4048V82.6571L349.957 81.4048L343.697 79.5262L339.315 77.6476V77.0214Z" fill="#0E064A"/>
<path d="M375.625 467.764H377.503V470.895L374.999 469.643H373.121L372.495 474.026L370.617 474.652L368.739 470.895L369.365 469.017L375.625 467.764Z" fill="#0B0353"/>
<path d="M478.922 180.343L481.426 180.969H483.93L485.808 183.474L484.556 188.483L482.052 185.352L479.548 182.848L475.166 182.221V181.595L478.922 180.969V180.343Z" fill="#0F0657"/>
<path d="M425.708 128.995L428.839 132.126L434.473 139.014L438.229 145.276L435.725 144.024L434.473 142.145L433.221 141.519L433.847 139.64H432.595L430.717 137.136V135.883L428.213 134.631L425.708 131.5V128.995Z" fill="#0F084C"/>
<path d="M353.714 377.593L357.47 378.219L358.096 380.724L354.966 381.976L355.592 383.855L354.34 388.238H353.714L353.088 378.219L353.714 377.593Z" fill="#080046"/>
<path d="M480.174 205.39L482.052 206.017L485.808 207.895L485.182 209.148H483.93V207.895L480.8 208.521H473.288L474.54 207.895V206.643L472.661 206.017L480.174 205.39Z" fill="#08013B"/>
<path d="M124.582 290.552H127.712L126.46 293.683L125.834 294.936V300.571H123.956L123.33 294.936L122.078 295.562L122.704 291.805L124.582 290.552Z" fill="#130B4D"/>
<path d="M309.265 474.652L311.143 475.279L313.021 480.288L312.395 481.54H308.013L307.386 479.662L309.265 474.652Z" fill="#221959"/>
<path d="M200.333 448.352L205.968 448.979L209.098 449.605L208.472 450.857L202.837 451.483L202.211 453.362L199.707 452.11L197.829 450.231L200.333 448.352Z" fill="#0C0454"/>
<path d="M445.116 81.4048L447.62 82.031L455.758 89.5452L456.384 91.4238L455.132 92.6762L453.88 90.7976L451.376 88.2929L447.62 85.1619L445.116 82.6571V81.4048Z" fill="#1E1462"/>
<path d="M313.647 25.6738L324.29 26.3L337.436 28.1786V28.8048H328.672L318.029 27.5524V26.3H313.647V25.6738Z" fill="#130D35"/>
<path d="M267.32 459.624H282.345L283.597 460.25L282.971 462.129L278.589 461.502L267.32 460.876V459.624Z" fill="#150D56"/>
<path d="M473.914 151.538L475.166 153.417L474.54 155.921L472.035 158.426H468.279L470.157 155.295L468.905 154.043L473.288 152.79L473.914 151.538Z" fill="#150D54"/>
<path d="M289.857 387.612L292.361 388.238L292.987 388.864V392.621L292.361 393.248H289.231L287.979 391.995L288.605 388.864L289.857 387.612Z" fill="#FDFDFD"/>
<path d="M475.166 289.3H477.044L476.418 292.431L475.166 295.562H473.287L470.783 298.067H469.531V296.814L472.035 294.31L473.287 290.552L475.166 289.3Z" fill="#0D063C"/>
<path d="M341.193 246.093H351.209L351.835 248.598L350.583 249.224L343.071 249.85V248.598L344.949 247.345L341.193 246.719V246.093Z" fill="#23195D"/>
<path d="M487.686 229.186H490.191L489.565 239.831H488.939V236.074H486.434L487.06 229.812L487.686 229.186Z" fill="#1D135A"/>
<path d="M363.73 61.3667H366.234L366.86 67.0024L365.608 69.5071L363.73 68.881L363.104 64.4976L363.73 61.3667Z" fill="#090237"/>
<path d="M346.827 457.119H356.218L353.714 458.371L344.323 459.624L340.567 460.25L336.81 459.624V458.998L341.193 458.371L341.819 457.745L346.827 457.119Z" fill="#0F0753"/>
<path d="M475.166 214.783L477.044 217.288L475.792 219.167L469.531 221.045L467.653 222.924L468.279 220.419L473.288 216.036L475.166 214.783Z" fill="#17112E"/>
<path d="M115.818 265.505H117.07V268.01L118.948 268.636L115.818 271.767H113.94L112.688 271.14L113.314 268.01L115.818 265.505Z" fill="#0C053B"/>
<path d="M501.459 167.193H502.711L506.468 181.595L507.72 187.231V190.362L506.468 189.11L503.964 177.212L502.085 172.202L501.459 167.193Z" fill="#130D35"/>
<path d="M351.835 468.39L352.461 469.643H354.966L356.218 472.148L353.714 471.521L353.088 483.419L351.835 480.914V468.39Z" fill="#0E0751"/>
<path d="M464.523 439.586H469.531V440.212H466.401L467.027 441.464H471.409L472.661 442.717L466.401 443.343H464.523L462.019 444.595L462.645 441.464L464.523 439.586Z" fill="#241867"/>
<path d="M344.323 396.379L347.453 398.883L348.079 402.64L344.323 402.014L342.445 400.136V398.883L340.567 398.257L341.819 397.631L344.949 399.51V398.257H343.697L344.323 396.379Z" fill="#0E0739"/>
<path d="M125.834 182.848H130.843L130.217 185.979L125.834 187.231L124.582 185.979V183.474L125.834 182.848Z" fill="#170E59"/>
<path d="M142.737 134.005L151.502 134.631L154.632 135.883L154.006 137.762L145.242 136.51V135.257L142.737 134.005Z" fill="#241862"/>
<path d="M430.717 120.855L433.221 122.107L436.351 125.864V128.995L433.847 127.743L431.343 123.986L429.465 121.481L430.717 120.855Z" fill="#150F2D"/>
<path d="M415.066 94.5548L418.822 95.181L413.188 102.695L412.561 100.817L411.309 101.443L410.683 99.5643L411.309 98.3119H413.814L414.44 95.181L415.066 94.5548Z" fill="#0A033D"/>
<path d="M284.849 472.774H289.231V474.026L291.109 473.4V475.279L288.605 475.905L287.353 475.279L286.727 476.531L286.101 475.905L285.475 482.793H284.849V472.774Z" fill="#080056"/>
<path d="M249.165 390.117H254.799L258.555 391.369V393.874L252.295 393.248L250.417 391.369L249.165 390.117Z" fill="#10094D"/>
<path d="M430.717 372.583L431.969 373.21L428.839 375.714L427.586 378.219L423.83 379.471L421.952 381.35H420.074L419.448 383.229L416.944 382.602L427.586 375.088L430.717 372.583Z" fill="#110B36"/>
<path d="M240.4 174.707H249.165L250.417 175.333V177.838L245.408 177.212V176.586L236.644 175.96V175.333L240.4 174.707Z" fill="#0F093B"/>
<path d="M145.868 118.976L150.876 122.733L154.006 126.49L150.25 127.117L148.372 124.612L148.998 123.36H147.746L145.868 120.229V118.976Z" fill="#231862"/>
<path d="M301.752 97.6857L308.639 102.069L315.525 105.826L318.029 107.705L315.525 108.331L302.378 99.5643L301.752 97.6857Z" fill="#120D38"/>
<path d="M278.589 386.36H279.841V387.612L282.971 388.238L284.223 391.995L283.597 394.5H282.345L281.719 393.248H280.467L279.841 388.238H278.589V386.36Z" fill="#0B043C"/>
<path d="M107.679 189.736H110.183L108.931 200.381L107.679 201.633L107.053 193.493L107.679 189.736Z" fill="#0E0655"/>
<path d="M300.5 186.605L301.752 188.483L303.63 187.231L306.76 193.493L303.63 192.867V191.614H302.378L303.004 194.119L301.126 192.24L300.5 190.988V186.605Z" fill="#0C0637"/>
<path d="M378.755 479.036L380.633 479.662V484.045L377.503 484.671L376.251 485.298L374.999 483.419L375.625 480.914L378.129 480.288L378.755 479.036Z" fill="#0C0455"/>
<path d="M143.99 137.136H147.746L146.494 137.762L144.616 143.398L142.737 144.65L141.485 143.398L142.737 139.64L143.99 137.136Z" fill="#120B3C"/>
<path d="M185.934 79.5262L189.691 80.7786L192.821 83.9095V85.1619L189.691 84.5357L186.56 83.2833L185.308 80.1524L185.934 79.5262Z" fill="#0D0556"/>
<path d="M471.409 449.605H474.54V452.736L470.157 454.614L467.653 453.988L470.157 453.362V451.483L468.279 450.857L471.409 449.605Z" fill="#241862"/>
<path d="M287.979 387.612L289.231 388.864L288.605 391.995L289.231 395.126L286.727 393.874L284.849 392.621L285.475 388.864L287.979 387.612Z" fill="#1B115C"/>
<path d="M288.605 385.733H292.987L295.492 387.612V388.864L294.24 389.49L292.987 391.995L291.735 388.238H286.727L288.605 385.733Z" fill="#110954"/>
<path d="M294.866 220.419H305.508V222.298H294.866V220.419Z" fill="#070037"/>
<path d="M191.569 462.755L193.447 465.26L194.699 463.381V468.39L192.195 469.643L190.317 469.017L189.691 467.138L191.569 462.755Z" fill="#0C0458"/>
<path d="M466.401 440.212H475.166L475.792 442.09L475.166 443.343L470.157 443.969V442.717L471.409 442.09H466.401V440.212Z" fill="#0B0356"/>
<path d="M564.063 379.471H568.446L567.194 380.724L561.559 381.976H552.169L553.421 380.724L564.063 379.471Z" fill="#110A50"/>
<path d="M237.27 124.612L239.774 125.238L237.896 126.49L229.131 128.369H222.871L225.375 127.117L235.392 125.238L237.27 124.612Z" fill="#100848"/>
<path d="M365.608 454.614H371.243L370.617 455.867L362.478 457.119L360.6 457.745L356.844 457.119L357.47 455.867L365.608 454.614Z" fill="#110A53"/>
<path d="M26.2938 383.855L29.424 386.986L35.0583 393.248L38.8146 397.631L38.1886 398.883L32.5542 393.248L26.9198 386.36L26.2938 383.855Z" fill="#110B44"/>
<path d="M168.405 331.255L169.657 333.76L170.909 334.386L167.779 337.517H166.527L164.649 335.638L165.901 333.133L168.405 332.507V331.255Z" fill="#0B033A"/>
<path d="M162.771 121.481H164.649L163.397 125.238L160.893 128.369L159.015 126.49L160.267 123.36L162.771 121.481Z" fill="#0C053F"/>
<path d="M403.797 107.705L408.805 111.462L415.066 117.098L416.318 118.976L411.309 116.471V114.593L408.805 113.967V112.714L406.301 111.462L403.797 108.957V107.705Z" fill="#0C0638"/>
<path d="M202.838 397.005L206.594 398.257L215.358 402.014L214.732 403.267L208.472 401.388L202.838 398.257V397.005Z" fill="#0E0835"/>
<path d="M323.664 73.8905H329.924L338.689 75.769V77.0214L332.428 76.3952L323.664 74.5167V73.8905Z" fill="#0F084B"/>
<path d="M61.9781 354.424L66.3604 358.181L67.6125 360.06H64.4823L63.8563 361.938L62.6042 360.686L61.9781 354.424Z" fill="#0D073E"/>
<path d="M172.161 321.862L174.04 323.114V324.367H175.292L179.674 329.376L185.308 334.386L183.43 335.012L172.161 323.74V321.862Z" fill="#110B3A"/>
<path d="M304.256 262.374L305.508 263V265.505H308.012L307.386 268.01H303.63L301.752 263L304.256 262.374Z" fill="#0A0438"/>
<path d="M350.583 246.719H354.34L356.218 247.971L354.966 250.476H353.714V254.233H353.088L352.461 250.476L350.583 248.598V246.719Z" fill="#10093F"/>
<path d="M349.331 178.464H349.957V184.726H356.218L354.34 187.857H349.331V178.464Z" fill="#221959"/>
<path d="M170.283 128.369L170.909 129.621L169.657 132.752L167.779 132.126L167.153 135.257L165.275 135.883L163.397 137.762L162.771 136.51L167.153 130.874L170.283 128.369Z" fill="#0D0555"/>
<path d="M465.149 102.695L470.157 106.452L473.287 110.21L472.661 113.34L465.149 103.948V102.695Z" fill="#241769"/>
<path d="M331.176 400.136L333.68 401.388L334.306 400.136L334.932 405.145L331.802 405.771L330.55 404.519L331.176 400.136Z" fill="#100854"/>
<path d="M132.721 350.04L137.103 353.798L141.485 358.807L144.616 361.938L143.99 363.19L132.721 351.919V350.04Z" fill="#120B3C"/>
<path d="M436.977 370.705L438.229 371.331L435.725 373.836L434.473 374.462L433.847 375.714L430.091 377.593L425.708 380.098L426.334 378.219L433.221 373.21L436.351 371.331L436.977 370.705Z" fill="#25186C"/>
<path d="M377.503 368.2H380.007L380.633 370.705L381.259 375.088H382.511L381.885 378.219H380.633L377.503 370.079V368.2Z" fill="#0C0638"/>
<path d="M347.453 122.733H351.835L363.104 125.864V126.49H358.722L347.453 123.36V122.733Z" fill="#100942"/>
<path d="M21.9114 377.593L30.676 378.845V380.098H24.4156L25.0416 381.976L22.5375 380.724L21.9114 377.593Z" fill="#120B49"/>
<path d="M135.225 319.983L135.851 321.862L137.729 322.488L138.355 323.114L141.485 324.367L142.737 325.619L140.859 327.498L138.355 326.245L135.225 323.114V319.983Z" fill="#0C0554"/>
<path d="M253.547 258.617L256.051 259.243L255.425 264.879L251.669 263.626L253.547 258.617Z" fill="#0B0436"/>
<path d="M175.918 98.3119L177.796 98.9381L179.674 98.3119L181.552 99.5643L180.926 102.695H177.796L175.918 99.5643V98.3119Z" fill="#0A0337"/>
<path d="M312.395 72.0119L322.411 72.6381L326.168 73.2643L323.664 74.5167L315.525 73.8905V72.6381H312.395V72.0119Z" fill="#120A51"/>
<path d="M291.109 55.1048L292.988 56.9833L292.361 63.2452L291.109 62.619V60.1143H289.231L289.857 55.731L291.109 55.1048Z" fill="#0B0357"/>
<path d="M143.99 277.402L146.494 280.533L149.624 288.048L150.25 289.926L148.998 290.552L143.99 279.907V277.402Z" fill="#110A53"/>
<path d="M317.403 395.752H324.29V396.379L321.159 397.005V398.257L322.411 398.883H316.777L316.151 397.005L317.403 395.752Z" fill="#21175E"/>
<path d="M239.774 259.869L242.278 260.495L244.156 264.252L240.4 264.879L239.148 263L239.774 259.869Z" fill="#110A36"/>
<path d="M484.556 184.1L486.434 185.979V191.614H484.556V190.362H483.304V186.605L484.556 184.1Z" fill="#0C0636"/>
<path d="M464.523 164.688H472.035L470.783 167.193L463.271 166.567V165.314L464.523 164.688Z" fill="#07003B"/>
<path d="M256.051 40.7024L258.555 41.3286L260.433 44.4595H258.555L257.929 43.2071L255.425 43.8333L252.295 45.0857L253.547 41.9548L256.051 40.7024Z" fill="#140E3E"/>
<path d="M305.508 485.298H314.273L315.525 486.55L316.777 490.307L314.273 489.681L313.647 487.802L314.273 486.55H306.76L305.508 485.298Z" fill="#1A163D"/>
<path d="M507.72 442.717L511.476 443.969L510.224 446.474L506.468 448.352L505.842 447.1L507.094 446.474L506.468 445.221L507.72 442.717Z" fill="#110956"/>
<path d="M344.949 416.417H351.835L350.583 417.669L344.949 418.921H339.941L342.445 417.669L344.949 416.417Z" fill="#0C0639"/>
<path d="M247.912 385.733H248.539V389.49H251.669L250.417 390.743L254.799 391.369V391.995L249.791 392.621H246.66L247.286 389.49L247.912 385.733Z" fill="#23195F"/>
<path d="M92.6542 383.229L95.1583 384.481L101.419 389.49V390.743L98.9146 391.369L97.6625 388.864L94.5323 385.733L92.6542 384.481V383.229Z" fill="#0D0745"/>
<path d="M271.076 387.612L275.458 388.238L272.954 391.369L272.328 392.621H269.824L270.45 388.238L271.076 387.612Z" fill="#22175E"/>
<path d="M478.296 324.367L480.8 324.993L480.174 326.871H478.296L476.418 330.629L474.54 332.507V334.386H472.035L473.287 331.255L475.792 329.376L478.296 324.367Z" fill="#24186A"/>
<path d="M388.772 135.883L390.024 136.51L386.268 142.771L385.016 145.902H383.764L382.511 149.033L381.885 147.781L386.894 138.388L388.772 135.883Z" fill="#120A52"/>
<path d="M333.68 64.4976L339.941 65.1238V66.3762L337.436 67.6286L331.802 67.0024L332.428 65.75H333.68V64.4976Z" fill="#0B0454"/>
<path d="M232.888 460.876H238.522L241.652 461.502L241.026 462.755H239.774L239.148 464.007L236.018 463.381L233.514 462.755L232.888 460.876Z" fill="#160F45"/>
<path d="M372.495 384.481L374.373 386.986V388.238L377.503 389.49L376.877 390.743H374.373V388.864L371.869 389.49L371.243 386.36L372.495 384.481Z" fill="#140B59"/>
<path d="M214.106 372.583H219.741L219.115 375.088H217.863V373.21L214.732 373.836L215.358 375.714H212.228L210.976 373.836L214.106 372.583Z" fill="#150D57"/>
<path d="M495.825 153.417L497.703 154.043L501.459 164.062L500.833 166.567L497.703 158.426L495.825 153.417Z" fill="#0F0937"/>
<path d="M474.54 122.107L476.418 122.733L482.052 132.752L481.426 134.631L474.54 123.36V122.107Z" fill="#100A3A"/>
<path d="M183.43 81.4048L184.682 82.031V85.7881H183.43L182.804 88.919L181.552 87.0405L180.926 83.2833L183.43 81.4048Z" fill="#100851"/>
<path d="M245.408 368.826L252.921 369.452L256.677 370.079L256.051 371.331H250.417L245.408 369.452V368.826Z" fill="#0D0555"/>
<path d="M485.808 316.226L486.434 318.105L481.426 326.871L479.548 328.124L482.052 321.862L485.808 316.226Z" fill="#0E0837"/>
<path d="M458.889 303.702L461.393 304.955L463.897 308.086L463.271 309.338L460.141 308.086L458.263 306.207L458.889 303.702Z" fill="#0A0255"/>
<path d="M108.305 256.112L110.183 256.738L114.566 257.99L113.94 259.243L108.931 259.869L107.679 256.738L108.305 256.112Z" fill="#130B54"/>
<path d="M132.721 97.0595H134.599L133.973 99.5643L130.843 102.695L128.339 103.948L130.217 99.5643L132.721 97.0595Z" fill="#231766"/>
<path d="M359.974 390.117L362.478 390.743L361.852 393.248L356.844 393.874L357.47 391.369L359.974 390.117Z" fill="#0E0834"/>
<path d="M106.427 304.955L108.931 308.086L110.809 309.964L109.557 313.095L107.053 310.59V307.46L105.801 306.833L106.427 304.955Z" fill="#23166A"/>
<path d="M461.393 269.262L465.149 269.888L464.523 271.767L465.149 274.271L460.767 273.019V269.888L461.393 269.262Z" fill="#0F083D"/>
<path d="M258.555 174.707H264.816V175.333L260.433 176.586L264.816 177.212V177.838L258.555 178.464V177.212H257.303L256.677 175.333L258.555 174.707Z" fill="#0E0837"/>
<path d="M137.729 158.426L140.859 160.305L140.233 162.81L135.851 162.183V160.305L137.729 158.426Z" fill="#0F083D"/>
<path d="M257.929 371.331L263.564 371.957L266.694 373.21V373.836H261.059L257.303 372.583L257.929 371.331Z" fill="#0C0454"/>
<path d="M486.434 239.831L488.313 241.71V247.971H485.808L486.434 239.831Z" fill="#0A0339"/>
<path d="M410.683 100.19H412.561L414.44 100.817L413.814 104.574L411.935 105.826L410.683 104.574V100.19Z" fill="#140B57"/>
<path d="M358.096 82.6571L362.478 83.2833L369.991 86.4143V87.0405H366.234L361.226 84.5357L358.096 83.9095V82.6571Z" fill="#110A4D"/>
<path d="M276.71 72.0119H282.971L282.345 73.8905H271.076L272.328 72.6381L276.71 72.0119Z" fill="#0F0756"/>
<path d="M276.71 405.145H282.971V407.65H277.963L276.71 405.145Z" fill="#0C053A"/>
<path d="M227.879 376.34L229.757 378.219V381.35L227.253 382.602L226.627 381.35V376.967L227.879 376.34Z" fill="#201A44"/>
<path d="M122.704 236.074H127.086V238.579H122.078L120.2 237.326L122.704 236.074Z" fill="#0D0640"/>
<path d="M480.8 207.895H483.93L484.556 209.148L487.06 209.774L485.182 212.279L482.052 211.652V209.148L480.8 207.895Z" fill="#180F5A"/>
<path d="M135.851 100.19L137.103 101.443L132.095 107.705L130.843 107.079L131.469 104.574H132.721V103.321H133.973L135.225 100.817L135.851 100.19Z" fill="#1C125E"/>
<path d="M431.969 75.7691L434.473 77.0214L436.977 78.9V80.1524L439.481 81.4048L442.611 84.5357L440.107 83.9095L434.473 78.9L431.969 77.0214V75.7691Z" fill="#0F0939"/>
<path d="M235.392 472.148H236.644L237.27 473.4H237.896V477.157L233.514 476.531L235.392 472.148Z" fill="#231862"/>
<path d="M280.467 177.212H281.093V187.857H279.841V190.988H278.589V185.352L279.841 184.726L280.467 177.212Z" fill="#25186C"/>
<path d="M144.616 113.34L147.12 113.967L145.868 117.098L143.99 118.35L143.364 117.724H142.111L142.737 115.219L144.616 113.34Z" fill="#0D063C"/>
<path d="M143.364 92.05L143.99 93.9286L143.364 95.181H142.111L140.859 97.6857L137.729 100.19V98.3119L138.981 96.4333H140.233V95.181H141.485V93.9286H142.738L143.364 92.05Z" fill="#1E145E"/>
<path d="M229.131 55.1048H230.383V56.3571L232.261 56.9833L229.757 59.4881L229.131 60.7405H227.879V58.8619L226.627 58.2357L229.131 55.1048Z" fill="#0A0438"/>
<path d="M442.611 464.633L443.864 467.138H446.994V469.643H445.116L446.368 470.895L443.237 470.269L442.611 464.633Z" fill="#0A0344"/>
<path d="M207.22 457.745L209.724 458.371L212.854 457.745L213.48 458.998L207.846 460.876L204.09 464.633L204.716 461.502L207.22 457.745Z" fill="#231860"/>
<path d="M350.583 393.874L351.835 396.379V398.257L353.714 397.631L353.088 400.762L350.583 401.388V393.874Z" fill="#100A38"/>
<path d="M440.733 364.443L441.985 365.069L437.603 370.079L433.847 371.957H431.969L440.733 364.443Z" fill="#100A38"/>
<path d="M248.539 121.481L249.791 122.107L246.66 123.986L242.278 125.238H239.148L239.774 123.986L248.539 121.481Z" fill="#0D073C"/>
<path d="M328.672 64.4976L333.68 65.1238L332.428 66.3762L335.558 67.0024L334.932 68.2548H330.55L328.672 65.1238V64.4976Z" fill="#0E073D"/>
<path d="M450.75 452.11L452.628 454.614L453.254 458.371H452.002L451.376 460.25L450.75 459.624V452.11Z" fill="#1C1649"/>
<path d="M340.567 395.126L344.323 395.752L343.697 398.257H344.949V399.51L341.819 398.257L339.941 397.631L340.567 395.126Z" fill="#0C0454"/>
<path d="M233.514 315.6L238.522 319.357L241.652 321.862L241.026 323.114L237.896 321.236L237.27 319.983L235.392 319.357L233.514 317.479V315.6Z" fill="#0C0645"/>
<path d="M301.752 259.243L304.882 259.869L305.508 263H304.256L303.004 264.252V263L301.126 262.374L301.752 259.243Z" fill="#0C0456"/>
<path d="M301.126 182.848H302.378V184.726H303.63L303.004 187.857L301.126 189.11L300.5 184.1L301.126 182.848Z" fill="#090158"/>
<path d="M132.721 178.464H133.347V182.221L130.843 184.726V182.848L128.965 182.221L131.469 179.717L132.721 178.464Z" fill="#0F083C"/>
<path d="M478.922 163.436L480.174 164.688V166.567L477.044 167.819L474.54 167.193H470.783L473.287 165.94L478.922 165.314V163.436Z" fill="#221A55"/>
<path d="M468.279 447.726H475.166L475.792 448.352V451.483L474.54 452.11V449.605L472.035 450.231V448.979H468.279V447.726Z" fill="#16103D"/>
<path d="M403.171 446.474H407.553L406.301 447.726L400.041 449.605L397.536 450.231V448.979L400.667 447.1L403.171 446.474Z" fill="#0C0551"/>
<path d="M48.2052 381.35L57.5958 381.976L56.9698 383.229H50.7094L48.2052 382.602V381.35Z" fill="#150D50"/>
<path d="M461.393 343.152L462.645 343.779L462.019 346.91L458.889 349.414L458.263 346.91L461.393 343.152Z" fill="#0D0644"/>
<path d="M371.869 299.945L372.495 301.824L366.234 309.338L364.982 308.086L369.991 302.45L371.869 299.945Z" fill="#100947"/>
<path d="M160.267 139.64L162.145 140.267L160.267 142.771L159.641 144.65L156.51 147.781L155.258 148.407L156.51 145.276L160.267 139.64Z" fill="#110954"/>
<path d="M450.124 86.4143L453.88 87.6667L456.384 90.1714L455.132 92.6762L453.88 90.7976L451.376 88.2929L450.124 87.6667V86.4143Z" fill="#1E145F"/>
<path d="M286.101 480.288L289.231 481.54L291.735 482.167L291.109 484.045L287.979 485.298L286.727 482.793L286.101 480.288Z" fill="#080057"/>
<path d="M398.789 447.726L400.041 448.352L395.032 450.857H390.65V449.605L398.789 447.726Z" fill="#110A4D"/>
<path d="M145.868 334.386L148.998 335.012L150.25 336.89L148.998 337.517V339.395L145.868 336.264V334.386Z" fill="#1F1659"/>
<path d="M219.115 89.5452L220.367 90.1714L214.106 94.5548L210.976 95.1809V93.9286L219.115 89.5452Z" fill="#120C40"/>
<path d="M388.146 450.231H390.65L390.024 452.11L385.016 453.988L385.642 450.857L388.146 450.231Z" fill="#0D0555"/>
<path d="M337.436 393.248H341.819L342.445 395.126L338.689 396.379L336.184 395.126L337.436 394.5V393.248Z" fill="#231862"/>
<path d="M353.714 377.593L357.47 378.219L358.096 380.724L355.592 381.976V380.724L354.34 380.098L354.966 379.471L353.088 378.219L353.714 377.593Z" fill="#0D0555"/>
<path d="M537.144 355.05H539.022L538.396 360.686L536.518 360.06L535.892 356.929L537.144 355.05Z" fill="#0C053C"/>
<path d="M473.914 335.012L475.166 335.638L470.783 341.9L469.531 341.274L470.157 338.769L473.287 335.638L473.914 335.012Z" fill="#1F1460"/>
<path d="M153.38 316.852L155.258 317.479V320.61L152.754 321.862L152.128 321.236V318.105L153.38 316.852Z" fill="#10093C"/>
<path d="M101.419 289.926L102.671 291.805L105.175 297.44L104.549 298.693L102.045 296.188L101.419 289.926Z" fill="#110B3E"/>
<path d="M123.956 238.579L127.086 239.205L127.712 244.84L125.208 242.336V245.467H124.582V241.083L125.208 239.831L123.956 238.579Z" fill="#221A51"/>
<path d="M298.622 204.764H301.126L300.5 207.895H297.37V205.39L298.622 204.764Z" fill="#140E3B"/>
<path d="M326.794 189.736H328.672H334.306L332.428 190.362V191.614L327.42 192.24L326.168 192.867L326.794 189.736Z" fill="#241864"/>
<path d="M442.611 129.621H443.864V135.883L444.49 137.762L441.985 137.136L441.359 132.752L442.611 129.621Z" fill="#0F0938"/>
<path d="M381.885 93.3024L385.016 94.5548L391.902 98.9381L390.65 99.5643L386.268 97.6857L384.39 95.8071L381.885 94.5548V93.3024Z" fill="#100A45"/>
<path d="M317.403 187.857H318.655V192.24H316.777L315.525 193.493L314.899 191.614L317.403 187.857Z" fill="#191057"/>
<path d="M237.27 187.231H237.896V193.493L235.392 192.867L236.018 189.736L237.27 187.231Z" fill="#100939"/>
<path d="M125.834 106.452L126.46 107.705L123.956 112.088L121.452 111.462L123.33 108.331L125.834 106.452Z" fill="#201562"/>
<path d="M356.218 473.4L357.47 474.652V477.783L355.592 479.036L354.34 475.905L354.966 474.652H356.218V473.4Z" fill="#0D0551"/>
<path d="M132.095 444.595H133.347L133.973 446.474L136.477 447.726L135.851 448.979L130.843 447.726L131.469 445.221L132.095 444.595Z" fill="#090156"/>
<path d="M447.62 431.445L448.872 432.071L444.49 435.202L440.107 435.829V434.576L447.62 431.445Z" fill="#140E4D"/>
<path d="M308.013 389.49L311.143 390.117L309.265 393.874L308.013 392.621L306.134 394.5L306.76 391.369L308.013 389.49Z" fill="#090336"/>
<path d="M574.706 378.219H579.089L577.837 381.35L575.332 380.724L574.706 378.219Z" fill="#100A37"/>
<path d="M143.364 315.6L144.616 316.226L145.242 320.61L144.616 323.74H143.99L142.737 316.226L143.364 315.6Z" fill="#180E5A"/>
<path d="M223.497 305.581L226.001 306.207L230.383 311.843H228.505L226.001 308.712L223.497 306.833V305.581Z" fill="#0D0739"/>
<path d="M482.052 264.252L485.182 265.505L484.556 268.01L482.678 268.636L481.426 268.01L482.052 264.252Z" fill="#181056"/>
<path d="M295.492 264.252L297.996 264.879L297.37 266.757L291.109 266.131V264.879L295.492 264.252Z" fill="#0B0453"/>
<path d="M229.131 381.35H231.009L231.635 382.602L234.766 383.229L233.514 384.481L227.879 383.229V381.976L229.131 381.35Z" fill="#1C1357"/>
<path d="M430.717 372.583L431.969 373.21L428.839 375.714L427.586 378.219H425.082L425.708 376.34L430.717 372.583Z" fill="#100A39"/>
<path d="M324.29 260.495H330.55V261.748L329.298 262.374H325.542L324.29 261.748V260.495Z" fill="#080057"/>
<path d="M473.914 179.717H478.922L479.548 181.595H474.54L472.661 180.343L473.914 179.717Z" fill="#070044"/>
<path d="M120.2 158.426H120.826V162.183L117.696 162.81V159.679L120.2 158.426Z" fill="#0E0749"/>
<path d="M173.414 123.986H174.666V125.238L172.788 127.117L172.161 128.369L169.031 130.248L167.779 130.874L169.031 128.369L173.414 123.986Z" fill="#120A56"/>
<path d="M396.284 82.6571H398.162V85.7881L395.658 86.4143L394.406 83.9095L396.284 82.6571Z" fill="#090336"/>
</g>
<defs>
<clipPath id="clip0_1204_2">
<rect width="601" height="526" fill="white"/>
</clipPath>
</defs>
</svg>
